<svg width="227" height="19" viewBox="0 0 227 19" fill="none" xmlns="http://www.w3.org/2000/svg">
<g clip-path="url(#clip0)">
<path d="M131.576 4.51539L129.166 9.75674H128.925V3.37305H125.499V14.1783H128.403C129.166 14.1783 129.863 13.7348 130.184 13.0359L132.593 7.79459H132.834V14.1783H136.261V3.37305H133.356C132.58 3.37305 131.897 3.81655 131.576 4.51539Z" fill="#2C2E2E" fill-opacity="0.5"/>
<path d="M118.725 4.79762L117.293 9.77018H117.052L115.619 4.79762C115.378 3.95094 114.615 3.37305 113.745 3.37305H110.318V14.1783H113.745V7.79459H113.986L115.941 14.1783H118.39L120.345 7.79459H120.586V14.1783H124.013V3.37305H120.599C119.729 3.37305 118.966 3.95094 118.725 4.79762Z" fill="#2C2E2E" fill-opacity="0.5"/>
<path d="M137.721 8.292V14.1919H141.134V10.738H144.816C146.409 10.738 147.774 9.71657 148.269 8.27856H137.721V8.292Z" fill="#2C2E2E" fill-opacity="0.5"/>
<path d="M144.829 3.37305H137.239C137.694 5.88621 139.889 7.79459 142.526 7.79459H148.417C148.47 7.55268 148.483 7.31078 148.483 7.05543C148.497 5.02609 146.85 3.37305 144.829 3.37305Z" fill="#2C2E2E" fill-opacity="0.5"/>
</g>
<path d="M65.0202 2.97656L62.876 15.1783H66.3053L68.4513 2.97656H65.0202Z" fill="#2C2E2E" fill-opacity="0.5"/>
<path d="M60.0007 2.98987L56.6419 11.3111L56.2838 10.0546C55.6214 8.54076 53.7409 6.36659 51.5332 4.9964L54.6044 15.1719L58.2331 15.1659L63.6337 2.9873L60.0007 2.98987Z" fill="#2C2E2E" fill-opacity="0.5"/>
<path d="M54.9821 3.86336C54.7827 3.12011 54.205 2.89858 53.4879 2.87207H48.1711L48.127 3.11498C52.2645 4.08831 55.0024 6.43354 56.1384 9.25346L54.9821 3.86336Z" fill="#2C2E2E" fill-opacity="0.5"/>
<path d="M75.402 5.31539C76.524 5.29829 77.3372 5.53606 77.9687 5.78239L78.2783 5.92351L78.7423 3.27893C78.0631 3.03174 76.9985 2.7666 75.6702 2.7666C72.2814 2.7666 69.8929 4.4216 69.8744 6.79335C69.8523 8.54586 71.5758 9.52432 72.8777 10.1085C74.2139 10.7072 74.662 11.0878 74.6558 11.6224C74.6453 12.4392 73.5904 12.8138 72.6051 12.8138C71.2318 12.8138 70.5024 12.6299 69.376 12.1749L68.9341 11.9799L68.4517 14.7109C69.2543 15.0521 70.7352 15.3455 72.2726 15.3609C75.8774 15.3609 78.2201 13.7256 78.2448 11.1913C78.2598 9.80486 77.3451 8.74686 75.3632 7.87873C74.1637 7.31252 73.4298 6.93619 73.4369 6.36485C73.4369 5.85765 74.0596 5.31539 75.402 5.31539Z" fill="#2C2E2E" fill-opacity="0.5"/>
<path d="M87.5431 2.99023H84.8935C84.0706 2.99023 83.4585 3.20748 83.0968 4.00291L78.0049 15.1851H81.6062C81.6062 15.1851 82.1936 13.6815 82.3268 13.3522C82.7211 13.3522 86.2201 13.3573 86.7184 13.3573C86.8207 13.7833 87.1365 15.1851 87.1365 15.1851H90.318L87.5431 2.99023ZM83.3138 10.8547C83.5961 10.1542 84.6801 7.44463 84.6801 7.44463C84.6615 7.47799 84.9597 6.73901 85.137 6.27971L85.368 7.33173C85.368 7.33173 86.0252 10.2449 86.1628 10.8547H83.3138Z" fill="#2C2E2E" fill-opacity="0.5"/>
<path d="M19.0815 0C17.2265 0 15.5003 0.561592 14.0636 1.52297C12.6267 0.561592 10.9007 0 9.04578 0C4.05797 0 0 4.05754 0 9.04492C0 14.0323 4.05797 18.0898 9.04578 18.0898C10.9007 18.0898 12.6269 17.5283 14.0636 16.5669C15.5006 17.5283 17.2265 18.0898 19.0815 18.0898C24.0693 18.0898 28.1273 14.0323 28.1273 9.04492C28.1273 4.05754 24.0693 0 19.0815 0V0ZM19.0815 16.4418C16.3879 16.4418 14.0261 14.9945 12.7325 12.8372H13.6832C14.1383 12.8372 14.5072 12.4683 14.5072 12.0132C14.5072 11.5582 14.1383 11.1891 13.6832 11.1891H12.0012C11.8995 10.8539 11.8207 10.5091 11.767 10.1557H15.0018C15.4568 10.1557 15.8259 9.78677 15.8259 9.33162C15.8259 8.87668 15.4568 8.50758 15.0018 8.50758H11.7033C11.7286 8.15586 11.7791 7.81079 11.8522 7.47431H13.6832C14.1383 7.47431 14.5072 7.10521 14.5072 6.65027C14.5072 6.19511 14.1383 5.82623 13.6832 5.82623H12.4218C13.6209 3.35561 16.1555 1.64808 19.0815 1.64808C23.1605 1.64808 26.4792 4.96635 26.4792 9.04492C26.4792 13.1235 23.1605 16.4418 19.0815 16.4418Z" fill="#2C2E2E" fill-opacity="0.5"/>
<g clip-path="url(#clip1)">
<path fill-rule="evenodd" clip-rule="evenodd" d="M213.398 3.52633C211.897 3.52633 210.725 3.92907 209.81 4.11214L209.517 6.38216C209.957 6.16248 211.421 5.75973 212.593 5.72312C213.764 5.68651 214.497 5.9428 214.24 6.96797C210.725 6.96797 208.346 7.70024 207.833 9.97026C207.137 13.8879 211.421 13.778 213.142 12.0572L212.922 13.0092H216.071L217.426 6.78491C218.012 4.14875 215.595 3.48971 213.398 3.52633ZM213.618 9.89703C213.435 10.7391 212.776 11.1053 211.97 11.1419C211.275 11.1785 210.652 10.5561 211.092 9.82381C211.458 9.20138 212.41 9.05493 212.995 9.05493C213.252 9.05493 213.508 9.05493 213.764 9.05493C213.728 9.34784 213.691 9.60413 213.618 9.89703Z" fill="#83827D"/>
<path fill-rule="evenodd" clip-rule="evenodd" d="M220.135 1.03662L217.536 13.0092H220.758L223.357 1.03662H220.135Z" fill="#83827D"/>
<path fill-rule="evenodd" clip-rule="evenodd" d="M205.453 1.07324H199.595L196.996 13.0092H200.401L201.316 9.05494H203.732C206.112 9.05494 208.089 7.5904 208.602 5.13732C209.188 2.35471 207.137 1.07324 205.453 1.07324ZM205.38 5.13732C205.16 6.05265 204.245 6.78491 203.366 6.78491H201.792L202.488 3.52633H204.172C205.051 3.52633 205.563 4.2586 205.38 5.13732Z" fill="#83827D"/>
<path fill-rule="evenodd" clip-rule="evenodd" d="M182.789 3.52633C181.288 3.52633 180.117 3.92907 179.275 4.11214L178.982 6.38216C179.384 6.16248 180.812 5.75973 181.984 5.72312C183.156 5.68651 183.851 5.9428 183.632 6.96797C180.153 6.96797 177.81 7.70024 177.297 9.97026C176.602 13.8879 180.849 13.778 182.497 12.0572L182.277 13.0092H185.426L186.78 6.78491C187.366 4.14875 184.95 3.48971 182.789 3.52633ZM183.009 9.89703C182.826 10.7391 182.13 11.1053 181.362 11.1419C180.666 11.1785 180.08 10.5561 180.519 9.82381C180.849 9.20138 181.838 9.05493 182.387 9.05493C182.68 9.05493 182.899 9.05493 183.192 9.05493C183.119 9.34784 183.046 9.60413 183.009 9.89703Z" fill="#83827D"/>
<path fill-rule="evenodd" clip-rule="evenodd" d="M188.172 3.67285H191.32L191.833 9.23807L194.909 3.67285H198.13L190.661 17.0001H187.183L189.453 13.0825L188.172 3.67285Z" fill="#83827D"/>
<path fill-rule="evenodd" clip-rule="evenodd" d="M174.954 1.07324H169.096L166.497 13.0092H169.938L170.78 9.05494H173.233C175.577 9.05494 177.554 7.5904 178.066 5.13732C178.689 2.35471 176.675 1.07324 174.954 1.07324ZM174.844 5.13732C174.625 6.05265 173.746 6.78491 172.867 6.78491H171.256L171.989 3.52633H173.673C174.552 3.52633 175.101 4.2586 174.844 5.13732Z" fill="#83827D"/>
<path d="M224.053 2.61098V1.18307H223.54V1H224.821V1.18307H224.309V2.61098H224.053Z" fill="#83827D"/>
<path d="M225.004 2.61098V1H225.334L225.7 2.13501C225.737 2.24485 225.773 2.31808 225.773 2.35469C225.773 2.28146 225.81 2.20824 225.847 2.0984L226.213 1H226.506V2.61098H226.286V1.25629L225.81 2.61098H225.627L225.151 1.25629V2.61098H225.004Z" fill="#83827D"/>
</g>
<defs>
<clipPath id="clip0">
<rect width="38.1785" height="10.8052" fill="white" transform="translate(110.318 3.37305)"/>
</clipPath>
<clipPath id="clip1">
<rect width="60.0458" height="16" fill="white" transform="translate(166.497 1)"/>
</clipPath>
</defs>
</svg>
