<svg width="104" height="40" viewBox="0 0 104 40" fill="none" xmlns="http://www.w3.org/2000/svg">
<g clip-path="url(#clip0)">
<path d="M6.38785 27.2752C5.98228 24.8417 5.93158 22.5097 6.28646 20.2283C6.64134 17.9469 7.40179 15.919 8.61852 14.0939C9.78456 12.2688 11.2041 11.3563 12.7757 11.3056C14.3473 11.2549 15.4119 12.3195 15.8682 14.5502C16.3245 16.7809 16.2738 19.4171 15.6147 22.4083C15.0064 25.4501 13.9924 28.137 12.6236 30.4691C12.8771 30.3677 13.2827 30.2156 13.7389 29.9621C16.0203 28.4412 17.7947 25.7543 19.1128 21.8506C19.1635 21.7492 19.417 21.7492 19.7719 21.7999C19.9747 21.8506 20.0254 21.9013 20.0254 22.0534C18.8086 25.5008 17.6933 27.7822 16.6287 28.8975C15.564 29.9621 14.6008 30.7226 13.7896 31.1282C12.9278 31.4323 12.3194 31.6351 11.9138 31.6858C10.5957 33.5616 9.17619 34.7277 7.60458 35.1839C6.74273 35.3867 5.98228 35.4374 5.17112 35.2346C4.41067 35.0318 3.59951 34.5249 2.78836 33.7137C1.92651 32.9026 1.26745 31.5337 0.709778 29.6579C0.202807 27.7822 -0.050678 26.2105 1.9128e-05 24.8924C1.9128e-05 22.459 0.405596 20.0255 1.11535 17.592C1.87581 15.1586 2.83906 13.0293 4.10648 11.2549C5.37391 9.4805 6.69203 8.41586 8.06085 8.11168C8.82131 7.90889 10.2408 8.16238 12.1673 8.82144C14.0938 9.4805 15.1077 10.0382 15.0571 10.393C15.0571 10.4944 14.9557 10.5958 14.7022 10.6465L14.2966 10.5451C13.0799 10.241 12.2687 10.1396 11.9138 10.2917C9.53107 11.0014 7.50319 13.1307 5.77949 16.7809C4.25857 20.0255 3.44742 23.3208 3.34603 26.7175C3.24463 30.1142 3.853 32.2435 5.22182 33.156C5.72879 33.4602 6.28646 33.5616 7.04691 33.4602C7.80737 33.3588 8.61852 32.8012 9.48037 31.6858C7.85807 31.1789 6.84413 29.7086 6.38785 27.2752ZM8.9734 17.6934C8.31434 19.4678 7.85807 21.2929 7.60458 23.118C7.3511 24.9431 7.45249 26.6161 7.80737 28.137C8.21295 29.6579 8.9734 30.5705 10.038 30.824C11.4576 28.4412 12.4208 25.3994 12.8771 21.6985C13.384 17.9976 13.2827 15.5135 12.5729 14.2967C12.218 13.6884 11.7617 13.5363 11.1534 13.8405C10.4436 14.6516 9.68316 15.919 8.9734 17.6934Z" fill="#2C2E2E"/>
<path d="M18.9102 18.251C19.9241 14.0431 20.938 11.1534 21.952 9.58175C22.3576 8.92269 23.2701 8.66921 24.5375 8.92269C25.8557 9.17618 26.5147 9.37897 26.464 9.53106C26.4133 9.68315 26.3626 9.73385 26.2612 9.78454C25.8557 9.83524 25.2473 10.7478 24.4361 12.4208C23.0673 15.3105 21.7999 18.7072 20.786 22.7123C19.7213 26.6667 19.6199 28.7453 20.3804 28.9987C20.786 28.9987 21.5464 28.1369 22.6617 26.4639C23.7771 24.7402 24.6389 22.9658 25.2473 21.1407C25.2473 21.09 25.4501 21.0393 25.805 21.09C26.2105 21.09 26.3119 21.1914 26.2105 21.2928C25.805 22.4588 25.0952 23.929 24.0813 25.7541C23.0166 27.5792 22.0534 28.8973 21.1915 29.8099C20.279 30.5196 19.5692 30.6717 18.9609 30.2662C18.3525 29.8606 17.9469 29.0494 17.7948 27.8834C17.5413 25.602 17.8962 22.4081 18.9102 18.251Z" fill="#2C2E2E"/>
<path d="M33.7135 28.0355C33.1052 28.5931 32.5982 28.7959 32.0912 28.7452C31.5842 28.6438 31.1787 28.1369 30.7731 27.1736C30.3675 26.2104 30.2154 25.1964 30.3168 24.1318C29.8099 25.3992 29.1001 26.6667 28.1368 27.9848C27.2243 29.3029 26.3118 29.8099 25.3485 29.455C23.7769 28.8973 23.2192 26.8694 23.7769 23.3206C24.2332 19.6705 25.2978 17.237 26.9201 16.0203C27.782 15.4626 28.5424 15.3105 29.3029 15.5133C30.0633 15.7161 30.621 16.2738 31.0266 17.0849C31.6856 12.6743 32.5475 9.63243 33.6121 8.01013C34.0684 7.35106 34.981 7.14828 36.3498 7.40176C37.7186 7.65525 38.327 7.85804 38.2256 8.01013C38.0735 8.16222 38.0228 8.21292 37.9214 8.21292C37.313 8.36501 36.4512 9.93662 35.3358 13.0291C34.2205 16.1217 33.3586 19.2142 32.7503 22.3574C32.1419 25.5006 32.1926 27.1229 32.9024 27.3257C33.3586 27.3257 34.0684 26.5653 34.9303 24.943C35.8428 23.3206 36.654 21.4956 37.3637 19.4677C37.4144 19.417 38.2256 19.3156 38.1749 19.6198C36.5019 23.9797 35.0317 26.768 33.7135 28.0355ZM30.7731 18.4537C30.0126 17.237 29.2015 17.4905 28.2889 19.2142C27.3764 20.8872 26.8187 22.8644 26.5652 25.095C26.4131 26.4132 26.4638 27.275 26.768 27.7313C27.0722 28.1876 27.5285 27.8834 28.0862 26.768C28.6945 25.6527 29.4043 23.9797 30.3168 21.6983L30.7731 18.4537Z" fill="#2C2E2E"/>
<path d="M36.9076 23.1178C36.1472 22.7629 35.3867 21.9518 34.7276 20.6843C34.0686 19.4169 33.663 17.9467 33.4602 16.3244C33.4602 15.6653 33.5616 15.3104 33.7644 15.2597C33.8658 15.2091 33.9672 15.3104 34.1193 15.5639C34.0686 16.3244 34.3728 16.9834 34.9304 17.5411C35.5388 18.0988 36.2485 18.5044 37.0597 18.7578C38.8848 19.3662 40.862 19.3662 43.042 18.6565C43.2954 15.2091 44.0559 12.1165 45.3233 9.32819C46.6414 6.53985 47.9089 4.56266 49.1763 3.34593C50.4437 2.1292 51.8126 1.57153 53.2321 1.57153C57.0851 1.67293 58.7074 3.24454 58.1497 6.28636C57.6934 8.66913 55.9697 11.5082 53.08 14.7528C51.1028 16.9834 48.9735 18.8085 46.6414 20.3802C46.1852 24.4359 46.7935 26.7173 48.4665 27.2243C49.6326 27.6298 51.0521 27.1736 52.7251 26.0075C54.3981 24.8415 55.8683 23.2699 57.1864 21.4448C58.5046 19.569 59.5185 17.7946 60.1776 16.0709C60.6338 15.4118 60.8873 15.3611 60.938 15.8681C60.9887 16.3751 60.5325 17.5411 59.4678 19.4676C58.4539 21.3434 57.4906 22.9657 56.5274 24.2838C55.5641 25.602 54.4995 26.7173 53.3335 27.6805C51.0014 29.5563 48.5172 29.9112 46.5908 28.4917C45.6275 27.7819 44.9177 26.9201 44.4108 25.9061C43.9545 24.8415 43.5996 23.6755 43.3461 22.3066C40.6085 23.5741 38.4792 23.8276 36.9076 23.1178ZM53.5363 10.7984C55.6655 8.21285 56.7809 6.33706 56.7809 5.17103C56.7809 4.20778 56.0204 4.05569 54.4995 4.61336C54.3981 4.66406 54.3474 4.66406 54.1953 4.71475C53.2321 5.06963 52.066 6.23567 50.7986 8.16215C49.5312 10.0379 48.3652 12.8263 47.3512 16.4258C47.4019 16.4258 47.6047 16.2737 47.8582 16.0709C49.5312 15.1584 51.407 13.384 53.5363 10.7984Z" fill="#2C2E2E"/>
<path d="M63.0164 12.9785C62.9657 12.9785 62.7122 12.9785 62.256 12.9278C61.242 15.9189 60.0253 18.6566 58.7072 21.09C57.389 23.5742 56.0709 24.9937 54.7528 25.45C54.7021 25.5007 54.55 25.5007 54.3979 25.3993C54.2458 25.2979 54.1951 25.1965 54.2458 25.0951C55.4118 24.7402 56.6286 23.3207 57.7439 20.9379C58.9099 18.5552 59.8732 15.8682 60.6336 12.9785C59.2648 12.7757 58.5044 12.4208 58.3523 12.0153C58.2002 11.559 58.403 11.2041 58.8592 11.0013C59.3155 10.7478 59.7718 10.5957 60.1774 10.4943C62.0025 10.1902 62.9657 10.2916 63.0671 10.7985L62.8136 11.7111C62.915 11.7618 63.8783 11.6604 65.602 11.4069C67.3257 11.1534 68.2382 11.2041 68.2889 11.4576C68.2889 11.6097 68.1368 11.8632 67.7312 12.1167C67.1229 12.6236 66.3117 14.4487 65.3992 17.5919C64.4866 20.7352 64.2331 22.6616 64.6894 23.3714C65.2471 24.2839 66.261 23.6756 67.6805 21.5463C69.1001 19.417 70.1647 17.3385 70.7731 15.3613C70.8238 15.1585 71.7363 15.2599 71.6856 15.5641C70.4689 18.2003 69.8605 19.5691 69.7591 19.6705C67.7819 23.5235 65.8554 25.2472 64.0304 24.7909C62.9657 24.3853 62.408 23.3714 62.3067 21.7491C62.2053 20.1268 62.3573 18.4538 62.6615 16.7808C63.0164 15.1078 63.422 13.7897 63.8276 12.8771L63.0164 12.9785Z" fill="#2C2E2E"/>
<path d="M77.4653 10.1902C77.668 9.73392 78.3271 9.63253 79.4931 9.88601C80.6592 10.1395 81.2675 10.393 81.2168 10.5958C81.2168 10.6465 81.2168 10.6972 81.1154 10.6972C80.4057 11.1534 79.5945 12.8264 78.682 15.7669C77.8201 18.7073 77.5666 20.4817 77.9722 21.1915C78.3778 21.7491 79.1383 21.1408 80.355 19.3664C81.5717 17.592 82.5857 15.5641 83.3461 13.3334C83.3461 13.232 83.4982 13.232 83.8024 13.2827C84.1066 13.3334 84.208 13.3841 84.1066 13.5362C83.7517 14.7022 83.0926 16.1218 82.1801 17.8455C80.355 21.2422 78.8848 22.9152 77.3132 22.611C76.1978 22.2561 75.5895 20.9887 75.5388 18.758C74.8797 20.1775 74.1192 21.3943 73.2574 22.3575C72.3955 23.3207 71.6351 23.6756 70.8746 23.4221C69.303 22.8645 68.7454 20.7859 69.303 17.2371C69.7593 13.5869 70.8239 11.1534 72.4462 9.93671C73.2067 9.42974 74.0179 9.27765 74.829 9.42974C75.6402 9.58183 76.3499 10.3423 76.9076 11.7111C77.1104 11.1534 77.3132 10.6465 77.4653 10.1902ZM76.1471 12.0153C75.3867 11.2041 74.5248 11.7111 73.663 13.5869C72.8011 15.4627 72.2435 17.3892 72.0914 19.4678C72.0407 20.5324 72.1421 21.2422 72.3448 21.597C72.5983 22.0026 73.0039 21.6477 73.663 20.6338C74.322 19.6199 75.0318 18.1496 75.843 16.3752C76.0457 15.0571 76.2992 13.9418 76.5527 12.9785C76.502 12.6237 76.3499 12.3195 76.1471 12.0153Z" fill="#2C2E2E"/>
<path d="M82.4335 11.1534C82.18 11.2548 82.0786 11.2041 82.0279 11.052C82.0279 10.7478 82.2814 10.3423 82.7377 9.88598C83.1939 9.42971 83.6502 9.17622 84.0558 9.17622C85.019 5.98231 86.1344 3.04188 87.3004 0.405629C87.6553 5.1897e-05 88.4665 -0.152039 89.5818 5.19082e-05C90.7478 0.101446 91.5083 0.456326 91.8632 0.912599C91.9646 1.06469 91.7111 1.16608 91.6604 1.16608C90.3929 2.12933 89.0241 4.71488 87.6046 8.97344C89.7846 8.77065 91.1027 8.41577 91.4069 7.95949C91.8632 7.9088 91.8125 8.36507 91.3055 9.32831C90.7985 10.2916 90.2915 10.8999 89.8353 11.1027H89.6325C89.0748 11.2548 88.213 11.3055 87.0469 11.2548C88.4665 12.5729 89.1255 14.3473 88.9734 16.578C88.8213 18.8087 88.3651 20.8366 87.6553 22.7123C86.9455 24.6388 86.1851 25.9063 85.4753 26.6667C85.4753 26.7174 85.4246 26.7681 85.4246 26.7681V26.8188C84.5628 27.7314 83.7009 27.9341 82.8898 27.5793C82.0786 27.2244 81.6223 26.3625 81.4702 25.0951C81.3182 23.8277 81.3689 21.9012 81.7237 19.3663C82.0786 16.7808 82.687 13.9924 83.4981 10.9506C82.9405 10.9506 82.5856 11.0013 82.4335 11.1534ZM85.6274 24.6895C86.2358 23.5235 86.7427 22.1547 87.199 20.5831C87.6046 19.0115 87.8074 17.4398 87.8074 15.8682C87.8074 14.2966 87.4018 13.0799 86.5907 12.218C85.6274 15.5134 84.8163 18.7073 84.3093 21.6984C83.8023 24.6895 83.7009 26.3118 84.1065 26.5653C84.4614 26.5146 85.019 25.8556 85.6274 24.6895Z" fill="#2C2E2E"/>
<path d="M94.0432 6.08373C92.6744 5.88094 91.9139 5.88094 91.7112 6.03303C91.407 6.13442 91.2549 6.08373 91.2549 5.88094C91.2549 5.52606 91.4577 5.17118 91.8126 4.8163C92.2181 4.46142 92.573 4.30933 92.8772 4.30933L94.5502 4.25863C94.9051 3.14329 95.2092 2.23075 95.5134 1.52099C95.7669 1.06471 96.0711 0.709834 96.3246 0.507046C96.6288 0.304257 97.3385 0.304257 98.4539 0.405651C99.6199 0.507046 100.228 0.709834 100.38 0.912622C100.482 1.11541 100.431 1.2168 100.228 1.2675C99.7213 1.3689 99.0622 2.28144 98.3018 3.95445C99.6199 3.75166 100.482 3.49817 100.735 3.19399C101.192 3.14329 101.141 3.54887 100.634 4.46142C100.127 5.37397 99.6199 5.93163 99.1129 6.13442H98.9608C98.606 6.23582 98.0483 6.28651 97.3892 6.33721C96.426 8.97346 95.6148 11.7618 95.0065 14.6008C94.3981 17.4399 94.2967 19.0115 94.7023 19.2143C95.2093 19.3664 96.1725 18.5552 97.4906 16.8315C98.8087 15.1078 99.8227 13.2827 100.482 11.4576C100.532 11.4069 101.394 11.2548 101.344 11.6097C100.634 13.1813 99.7213 14.9557 98.5553 16.8822C97.3892 18.8087 96.2232 19.9747 95.0572 20.3296C94.3474 20.6338 93.739 20.5324 93.1307 20.0761C92.573 19.6198 92.2181 18.8594 92.066 17.8961C91.8126 15.5641 92.4716 11.6097 94.0432 6.08373Z" fill="#2C2E2E"/>
<path d="M75.5387 31.5844L72.9024 30.3677C70.8746 29.4044 68.5425 29.0495 66.2104 29.303L55.7668 30.4184L42.9912 31.7872L32.4969 32.9025C30.1648 33.156 27.9848 34.0179 26.2104 35.3867L23.8784 37.1611C23.6756 37.3132 23.7263 37.5667 23.9291 37.668L26.9709 39.0876C28.7453 39.8987 30.7225 40.2029 32.7504 40.0001L44.36 38.7327L55.8175 37.516L67.4272 36.2485C69.4043 36.0457 71.3308 35.2853 72.8517 34.1193L75.5387 32.0914C75.7922 31.9393 75.7415 31.6858 75.5387 31.5844ZM30.8746 38.3778C29.9113 38.4792 29.0495 37.7694 28.9481 36.8062C28.8467 35.8429 29.5564 34.9811 30.5197 34.8797C31.4829 34.7783 32.3448 35.4881 32.4462 36.4513C32.5476 37.4146 31.8378 38.2764 30.8746 38.3778ZM63.3207 33.7644L62.4081 33.8658C62.3574 34.829 61.597 35.6909 60.583 35.7923L39.341 38.0736C38.2256 38.175 37.2117 37.3639 37.1103 36.2992V36.2485L34.0685 36.5527L34.0178 35.995L37.0596 35.6909V35.6402C36.9582 34.5248 37.7694 33.5109 38.834 33.4095L60.0761 31.1281C61.1914 31.0267 62.2054 31.8379 62.3068 32.9025V33.0546L63.1686 32.9532C63.4221 32.9532 63.6249 33.1053 63.6249 33.3081C63.7263 33.5616 63.5742 33.7644 63.3207 33.7644ZM69.3029 34.2713C68.3397 34.3727 67.4779 33.663 67.3765 32.6997C67.2751 31.7365 67.9848 30.8746 68.9481 30.7732C69.9113 30.6719 70.7732 31.3816 70.8746 32.3449C70.976 33.3081 70.2662 34.1699 69.3029 34.2713Z" fill="#2C2E2E"/>
<path d="M60.1776 31.3815L53.8911 32.0406C54.3474 32.0913 54.753 32.142 55.2092 32.1927C57.1357 32.5475 59.5185 33.308 60.3296 35.2852C60.3803 35.3866 60.3803 35.488 60.431 35.5387H60.6338C61.2422 35.488 61.6985 34.9303 61.6478 34.2712L61.445 32.3448C61.3943 31.7364 60.8366 31.2801 60.1776 31.3815Z" fill="#2C2E2E"/>
<path d="M40.9125 35.2852C40.2027 34.981 38.986 34.474 38.4283 33.7136C37.9213 33.8657 37.6171 34.3726 37.6678 34.8796L37.8706 36.8061C37.9213 37.4144 38.479 37.8707 39.1381 37.82L47.1482 37.0089C45.0189 36.7047 42.9403 36.0963 40.9125 35.2852Z" fill="#2C2E2E"/>
<path d="M59.792 33.2951L39.6792 35.4474L39.7277 35.9011L59.8406 33.7488L59.792 33.2951Z" fill="#2C2E2E"/>
<path d="M98.3015 24.4866C98.5043 22.6108 99.1634 19.3155 99.5183 17.4397C101.648 15.2598 103.016 12.6235 103.574 9.58169C103.675 8.97332 103.016 8.51705 102.509 8.97332C100.127 11.0012 98.9606 13.8402 98.3015 16.8821C98.2508 16.9328 98.2508 16.9835 98.2001 16.9835C97.9466 17.2369 97.9466 17.5411 98.1494 17.7439C98.048 21.749 97.8453 24.0304 97.1355 27.4271C96.8313 28.9987 95.9695 31.8884 95.5132 33.4093C95.9188 32.6996 96.5271 33.1051 98.3015 24.4866ZM101.597 11.9138C101.242 12.7756 100.836 13.6375 100.329 14.3979C100.684 13.5361 101.09 12.6742 101.597 11.9138Z" fill="#2C2E2E"/>
</g>
<defs>
<clipPath id="clip0">
<rect width="103.574" height="40" fill="white"/>
</clipPath>
</defs>
</svg>
