<svg width="30" height="24" viewBox="0 0 30 24" fill="none" xmlns="http://www.w3.org/2000/svg">
<g clip-path="url(#clip0)">
<path fill-rule="evenodd" clip-rule="evenodd" d="M23.4494 9.26316C22.6988 9.26316 22.113 9.46454 21.6553 9.55607L21.5089 10.6911C21.7285 10.5812 22.4608 10.3799 23.0466 10.3616C23.6324 10.3433 23.9986 10.4714 23.8704 10.984C22.113 10.984 20.923 11.3501 20.6668 12.4851C20.3189 14.4439 22.4608 14.389 23.3212 13.5286L23.2114 14.0046H24.7857L25.4631 10.8925C25.756 9.57438 24.5478 9.24486 23.4494 9.26316ZM23.5592 12.4485C23.4677 12.8696 23.1381 13.0526 22.7354 13.0709C22.3876 13.0892 22.0764 12.778 22.296 12.4119C22.4791 12.1007 22.9551 12.0275 23.248 12.0275C23.3761 12.0275 23.5043 12.0275 23.6324 12.0275C23.6141 12.1739 23.5958 12.3021 23.5592 12.4485Z" fill="#B35229"/>
<path fill-rule="evenodd" clip-rule="evenodd" d="M26.8193 8.01831L25.5195 14.0046H27.1305L28.4303 8.01831H26.8193Z" fill="#B35229"/>
<path fill-rule="evenodd" clip-rule="evenodd" d="M19.4788 8.03662H16.5498L15.25 14.0046H16.9525L17.4102 12.0275H18.6184C19.8083 12.0275 20.7969 11.2952 21.0532 10.0687C21.3461 8.67735 20.3209 8.03662 19.4788 8.03662ZM19.4422 10.0687C19.3324 10.5263 18.8747 10.8925 18.4354 10.8925H17.6482L17.996 9.26317H18.8381C19.2775 9.26317 19.5337 9.6293 19.4422 10.0687Z" fill="#B35229"/>
<path fill-rule="evenodd" clip-rule="evenodd" d="M8.14742 9.26316C7.39685 9.26316 6.81104 9.46454 6.38999 9.55607L6.24353 10.6911C6.44491 10.5812 7.15887 10.3799 7.74468 10.3616C8.33049 10.3433 8.67832 10.4714 8.56848 10.984C6.82935 10.984 5.65772 11.3501 5.40143 12.4851C5.0536 14.4439 7.17717 14.389 8.00097 13.5286L7.89113 14.0046H9.4655L10.1428 10.8925C10.4358 9.57438 9.22752 9.24486 8.14742 9.26316ZM8.25726 12.4485C8.16573 12.8696 7.81791 13.0526 7.43347 13.0709C7.08564 13.0892 6.79273 12.778 7.01241 12.4119C7.17717 12.1007 7.67145 12.0275 7.94605 12.0275C8.09251 12.0275 8.20234 12.0275 8.3488 12.0275C8.31218 12.1739 8.27557 12.3021 8.25726 12.4485Z" fill="#B35229"/>
<path fill-rule="evenodd" clip-rule="evenodd" d="M10.838 9.33643H12.4124L12.6687 12.119L14.2064 9.33643H15.8174L12.0829 16H10.3438L11.4788 14.0412L10.838 9.33643Z" fill="#B35229"/>
<path fill-rule="evenodd" clip-rule="evenodd" d="M4.22883 8.03662H1.29977L0 14.0046H1.72082L2.14188 12.0275H3.36842C4.54005 12.0275 5.5286 11.2952 5.7849 10.0687C6.09611 8.67735 5.08924 8.03662 4.22883 8.03662ZM4.17391 10.0687C4.06407 10.5263 3.62471 10.8925 3.18535 10.8925H2.37986L2.746 9.26317H3.5881C4.02746 9.26317 4.30206 9.6293 4.17391 10.0687Z" fill="#B35229"/>
<path d="M28.7797 8.80549V8.09153H28.5234V8H29.1642V8.09153H28.9079V8.80549H28.7797Z" fill="#B35229"/>
<path d="M29.2539 8.80549V8H29.4187L29.6017 8.56751C29.62 8.62243 29.6383 8.65904 29.6383 8.67735C29.6383 8.64073 29.6567 8.60412 29.675 8.5492L29.858 8H30.0045V8.80549H29.8946V8.12815L29.6567 8.80549H29.5651L29.3271 8.12815V8.80549H29.2539Z" fill="#B35229"/>
</g>
<defs>
<clipPath id="clip0">
<rect width="30" height="24" fill="white"/>
</clipPath>
</defs>
</svg>
