<svg width="18" height="19" viewBox="0 0 18 19" fill="none" xmlns="http://www.w3.org/2000/svg">
<path d="M3.42071 16.9802V17.8396L4.16782 17.4148L6.64897 16.0043C7.37485 16.1946 8.13991 16.2965 8.9292 16.2965C13.5516 16.2965 17.3584 12.7921 17.3584 8.39823C17.3584 4.00408 13.5516 0.5 8.9292 0.5C4.30708 0.5 0.5 4.00406 0.5 8.39823C0.5 10.795 1.63861 12.9346 3.42071 14.3772V16.9802Z" stroke="#B35229"/>
<path d="M13.7456 6.40217C13.8229 6.1656 13.7456 6 13.385 6H12.1806C11.8715 6 11.733 6.15081 11.6557 6.31641C11.6557 6.31641 11.0439 7.69147 10.1777 8.57565C9.89432 8.83588 9.77518 8.91572 9.61739 8.91572C9.54011 8.91572 9.4274 8.83588 9.4274 8.59931V6.40217C9.43062 6.11828 9.34368 6 9.08607 6H7.19584C7.00586 6 6.88671 6.13307 6.88671 6.25136C6.88671 6.52045 7.31499 6.58255 7.36973 7.32479V8.95121C7.36973 9.30606 7.30211 9.37112 7.14754 9.37112C6.74502 9.37112 5.74678 7.99606 5.16071 6.41695C5.03835 6.12716 4.92564 6 4.61651 6H3.41218C3.06762 6 3 6.15081 3 6.31641C3 6.60917 3.40252 8.06111 4.89988 9.98029C5.89813 11.2903 7.29889 12 8.57084 12C9.33724 12 9.43062 11.8433 9.43062 11.5742V10.5806C9.43062 10.2642 9.49824 10.2021 9.74941 10.2021C9.92974 10.2021 10.2324 10.2819 10.9441 10.9118C11.762 11.6629 11.8972 12 12.3545 12H13.5588C13.9034 12 14.0741 11.8433 13.971 11.5328C13.8583 11.2252 13.4719 10.7758 12.9567 10.2376C12.6733 9.93002 12.2515 9.60473 12.1323 9.43913C11.952 9.22622 12.0035 9.13159 12.1323 8.94825C12.1291 8.94529 13.6007 7.04978 13.7456 6.40217Z" fill="#B35229"/>
</svg>
