<svg width="20" height="20" viewBox="0 0 20 20" fill="none" xmlns="http://www.w3.org/2000/svg">
<path d="M17.2426 3.10622L16.208 3.79591L14.4837 3.45106L13.4491 3.10622L12.0697 3.45106L11.0352 3.10622L11.7248 1.7268H13.1043L14.4561 1.0509C15.4986 1.56645 16.4418 2.26235 17.2426 3.10622Z" fill="#03AA6F"/>
<path d="M9.30896 1.72676L8.96412 2.76134L7.92955 3.10618L6.89497 4.83044L5.17071 5.86502L2.75676 6.20986V7.24443L3.44645 7.93412V9.31354L2.41196 8.62381L1.37738 7.93412L0.777344 6.13056C1.81016 3.66931 3.78446 1.72364 6.26048 0.726685L7.23986 1.38192L9.30896 1.72676Z" fill="#03AA6F"/>
<path d="M9.9997 11.3826L9.65486 13.1069L8.27544 14.4863V15.5209L6.89602 16.5554V18.2797L5.86149 17.9348L5.17176 16.2105V12.762L3.4475 12.4172L2.75781 11.0378V10.0032L3.4475 9.3135L4.48207 8.27893L5.17176 9.65835H7.58571L8.62028 11.3826H9.9997Z" fill="#03AA6F"/>
<path d="M18.7225 5.11673C20.6051 8.47525 20.3906 12.6166 18.1708 15.7623L17.2397 14.8312V13.4518L16.55 12.0724L15.8603 10.693V9.31353L14.8257 8.62385L13.4463 8.96869L11.0323 7.93412L10.6875 5.52017L11.7221 4.4856H13.7912L14.4809 5.52017L16.55 5.86501L18.6191 5.17532L18.7225 5.11673Z" fill="#03AA6F"/>
<path d="M12.0684 3.45164L13.4478 3.10679L14.4824 3.45164L16.2067 3.79648L17.2412 3.10679C17.8189 3.71132 18.3172 4.38687 18.7241 5.11726L18.6207 5.1759L16.5516 5.86559L14.4824 5.52074L13.7928 4.48617H11.7237L10.6891 5.52074L11.0339 7.93469L13.4479 8.96927L14.8273 8.62442L15.8619 9.31411V10.6935L16.5516 12.0729L17.2412 13.4524V14.8318L18.1723 15.7629C14.9876 20.2756 8.74752 21.3519 4.23512 18.1672C0.402773 15.4621 -1.03493 10.4573 0.777969 6.13113L1.37801 7.93469L2.41258 8.62438L3.44715 9.31407L2.75743 10.0038V11.0384L3.44712 12.4178L5.17138 12.7626V16.2112L5.86107 17.9354L6.89564 18.2803V16.556L8.27505 15.5214V14.4869L9.65447 13.1074L9.99932 11.3832H8.6199L7.58533 9.65892H5.17138L4.48169 8.2795L3.44712 9.31407V7.93465L2.75743 7.245V6.21043L5.17138 5.86559L6.89564 4.83101L7.93021 3.10675L8.96478 2.76191L9.30963 1.72734L7.24052 1.38249L6.26114 0.727255C8.91306 -0.340755 11.8953 -0.222825 14.4548 1.05144L13.103 1.72734H11.7236L11.0339 3.10675L12.0684 3.45164Z" fill="#86DAF1"/>
</svg>
