<svg width="24" height="24" viewBox="0 0 24 24" fill="none" xmlns="http://www.w3.org/2000/svg">
<path d="M13.3689 11.9089L23.7012 1.64008C23.8835 1.4582 23.9858 1.212 23.9856 0.955421C23.9854 0.698839 23.8828 0.452782 23.7003 0.271143C23.335 -0.0897737 22.6915 -0.0915962 22.3225 0.272966L11.9929 10.5418L1.65966 0.270232C1.29248 -0.0897736 0.649005 -0.0879509 0.283665 0.272055C0.192984 0.361731 0.121199 0.468442 0.0724996 0.585959C0.0238003 0.703477 -0.000838195 0.829448 2.17589e-05 0.956521C2.17589e-05 1.21536 0.100995 1.45779 0.283665 1.63734L10.616 11.908L0.284583 22.1795C0.102267 22.3617 0.00016775 22.6082 0.000684011 22.865C0.00120027 23.1218 0.10429 23.3679 0.287337 23.5494C0.464499 23.7235 0.715097 23.8237 0.973956 23.8237H0.979463C1.23924 23.8228 1.48984 23.7216 1.66333 23.5457L11.9929 13.2769L22.3262 23.5485C22.5088 23.7289 22.753 23.8292 23.0119 23.8292C23.1399 23.8295 23.2667 23.8048 23.385 23.7563C23.5033 23.7078 23.6108 23.6366 23.7013 23.5468C23.7918 23.4569 23.8636 23.3501 23.9124 23.2327C23.9612 23.1152 23.9861 22.9893 23.9858 22.8622C23.9858 22.6042 23.8848 22.3609 23.7012 22.1814L13.3689 11.9089Z"/>
</svg>
