<svg width="17" height="11" viewBox="0 0 17 11" fill="none" xmlns="http://www.w3.org/2000/svg">
<path d="M14.1563 6.31754C13.8929 5.98447 13.9683 5.83628 14.1563 5.53856C14.1597 5.53516 16.3341 2.52663 16.5582 1.50635L16.5595 1.50567C16.6709 1.13385 16.5595 0.860596 16.0212 0.860596H14.2398C13.7864 0.860596 13.5773 1.09511 13.4652 1.35748C13.4652 1.35748 12.5583 3.53129 11.2752 4.94039C10.8611 5.34755 10.6697 5.47806 10.4436 5.47806C10.3323 5.47806 10.1592 5.34755 10.1592 4.97573V1.50567C10.1592 1.05976 10.0322 0.860596 9.65681 0.860596H6.85581C6.57137 0.860596 6.40233 1.0686 6.40233 1.26232C6.40233 1.68512 7.04386 1.78232 7.11039 2.97186V5.55283C7.11039 6.11837 7.00788 6.22237 6.78046 6.22237C6.17491 6.22237 4.70516 4.03973 3.83418 1.54169C3.65835 1.05704 3.4866 0.861275 3.02972 0.861275H1.2477C0.739227 0.861275 0.636719 1.09579 0.636719 1.35816C0.636719 1.82175 1.24227 4.12674 3.45265 7.17197C4.92579 9.25061 7.00041 10.3769 8.88766 10.3769C10.022 10.3769 10.1605 10.1268 10.1605 9.69652C10.1605 7.71032 10.058 7.52271 10.6262 7.52271C10.8896 7.52271 11.3431 7.65322 12.4021 8.65584C13.6126 9.8447 13.8115 10.3769 14.489 10.3769H16.2703C16.7781 10.3769 17.0354 10.1268 16.8874 9.6333C16.5487 8.59534 14.2595 6.46028 14.1563 6.31754Z" />
</svg>
