<svg width="88" height="45" viewBox="0 0 88 45" fill="none" xmlns="http://www.w3.org/2000/svg">
<path d="M1.12787 5.5549C1.81202 3.40861 2.6854 4.28464 7.43079 4.28464C12.1762 4.28464 14.4033 4.78106 27.6205 1.94854C39.4549 -0.577363 56.5441 2.43036 62.2647 5.26288C65.3361 6.78135 70.4309 9.08825 74.8706 10.3147C79.4267 11.585 87.1999 11.877 86.9961 14.7971C86.7632 18.199 77.7819 17.031 74.2883 17.4252C71.1005 17.7756 65.3653 19.4693 58.4655 20.1555C51.0272 20.8855 32.8463 18.9875 27.0237 16.4616C21.2011 13.9357 8.88643 10.4169 5.291 9.43866C1.71012 8.47502 0.589282 7.23397 1.12787 5.5549Z" stroke="#B35229" stroke-width="0.6" stroke-miterlimit="10"/>
<path d="M55.711 9.78165L32.2947 6.99536L31.7545 11.5624L55.1708 14.3486L55.711 9.78165Z" stroke="#B35229" stroke-width="0.6" stroke-miterlimit="10"/>
<path d="M29.6754 12.2898L31.6123 12.5203L32.3788 6.03947L30.4419 5.809L29.6754 12.2898Z" stroke="#B35229" stroke-width="0.6" stroke-miterlimit="10"/>
<path d="M55.0641 15.3086L57.001 15.5391L57.7675 9.05827L55.8305 8.82779L55.0641 15.3086Z" stroke="#B35229" stroke-width="0.6" stroke-miterlimit="10"/>
<path d="M21.2305 8.34341L29.8915 9.36545L29.9789 8.69382L21.4343 7.64258L21.2305 8.34341Z" stroke="#B35229" stroke-width="0.6" stroke-miterlimit="10"/>
<path d="M57.4468 12.6503L66.0642 13.6724V12.8694L57.5341 11.9641L57.4468 12.6503Z" stroke="#B35229" stroke-width="0.6" stroke-miterlimit="10"/>
<path d="M21.2885 7.97849C22.3802 4.62035 28.13 2.28425 39.7751 3.08728C51.4202 3.89032 59.5718 6.00741 62.7742 8.85453C65.9766 11.7016 66.7045 12.4317 65.7583 14.9138C64.8121 17.3959 52.9487 18.7099 41.5947 17.1039C30.2407 15.4978 20.1968 11.3366 21.2885 7.97849Z" stroke="#B35229" stroke-width="0.6" stroke-miterlimit="10"/>
<path d="M33.4865 7.24854L32.9043 11.6287" stroke="#B35229" stroke-width="0.6" stroke-miterlimit="10"/>
<path d="M34.9861 7.49658L34.4038 11.8768" stroke="#B35229" stroke-width="0.6" stroke-miterlimit="10"/>
<path d="M36.6604 7.64282L36.0781 12.023" stroke="#B35229" stroke-width="0.6" stroke-miterlimit="10"/>
<path d="M38.3337 7.78857L37.7515 12.1688" stroke="#B35229" stroke-width="0.6" stroke-miterlimit="10"/>
<path d="M40.008 7.93481L39.4258 12.315" stroke="#B35229" stroke-width="0.6" stroke-miterlimit="10"/>
<path d="M41.7839 8.22681L41.2017 12.607" stroke="#B35229" stroke-width="0.6" stroke-miterlimit="10"/>
<path d="M43.5598 8.3728L42.9775 12.753" stroke="#B35229" stroke-width="0.6" stroke-miterlimit="10"/>
<path d="M45.3357 8.66479L44.7534 13.045" stroke="#B35229" stroke-width="0.6" stroke-miterlimit="10"/>
<path d="M47.1115 8.81079L46.5293 13.191" stroke="#B35229" stroke-width="0.6" stroke-miterlimit="10"/>
<path d="M48.8586 9.05908L48.2764 13.4393" stroke="#B35229" stroke-width="0.6" stroke-miterlimit="10"/>
<path d="M50.6345 9.24878L50.0522 13.629" stroke="#B35229" stroke-width="0.6" stroke-miterlimit="10"/>
<path d="M52.4099 9.43872L51.8276 13.8189" stroke="#B35229" stroke-width="0.6" stroke-miterlimit="10"/>
<path d="M54.2009 9.64307L53.6187 14.0232" stroke="#B35229" stroke-width="0.6" stroke-miterlimit="10"/>
<path d="M42.2061 19.5129C42.2061 19.5129 49.1495 24.667 46.4275 31.7774C42.9485 40.8882 31.4053 44.334 31.4053 44.334" stroke="#B35229" stroke-width="0.6" stroke-miterlimit="10"/>
<path d="M41.3036 17.0749C41.2017 16.9289 39.586 13.9795 41.7403 12.7239" stroke="#B35229" stroke-width="0.6" stroke-miterlimit="10"/>
</svg>
