<svg width="66" height="56" viewBox="0 0 66 56" fill="none" xmlns="http://www.w3.org/2000/svg">
<g clip-path="url(#clip0)">
<path d="M65.8885 3.35823C65.3079 3.06983 64.7027 2.85983 64.0565 2.80383C63.3527 2.74223 62.679 3.02783 61.9916 3.09503C61.2687 3.16783 60.5184 3.15663 59.8173 2.94943C59.5024 2.85703 59.1984 2.73103 58.889 2.62463C58.6699 2.54903 58.4453 2.51543 58.2208 2.45663C58.4398 1.92183 58.2043 1.36183 57.8346 0.94743C57.4869 0.55823 56.9967 0.73183 56.553 0.75983C56.3066 0.77383 56.208 0.65063 56.0409 0.48823C55.8493 0.30063 55.6357 0.11583 55.3782 0.0290301C54.8689 -0.14737 54.491 0.60023 53.9926 0.48543C53.7461 0.42943 53.538 0.30623 53.2806 0.28383C53.0478 0.26423 52.815 0.32583 52.6179 0.45463C52.4015 0.59743 52.2536 0.82423 52.0428 0.97263C51.8483 1.10703 51.6156 1.15743 51.3883 1.19663C51.0268 1.25823 50.6379 1.31143 50.4189 1.65303C50.1587 2.05343 50.1751 2.52943 50.1751 2.99143C50.1751 2.99423 50.1751 2.99703 50.1751 2.99983C50.1614 3.01103 50.1478 3.02223 50.1368 3.03343C50.1012 3.03343 50.0656 3.03903 50.0273 3.06143C49.7781 3.19583 49.5015 3.25183 49.2577 3.39743C48.9729 3.57103 48.7237 3.81183 48.4745 4.03303C47.8255 4.60143 47.1053 4.74143 46.2646 4.71063C44.8899 4.66023 43.3481 4.27943 42.0775 5.04663C42.0282 5.07743 41.9981 5.11663 41.9844 5.16143C41.894 5.22023 41.831 5.34063 41.8913 5.46663C42.198 6.13863 42.6033 6.73223 43.1427 7.23343C43.6302 7.68703 44.1943 8.10703 44.8598 8.15743C44.5941 8.40663 44.4189 8.72583 44.2299 9.04223C44.1669 9.14583 44.1067 9.22983 44.0163 9.31103C43.8301 9.48183 43.6138 9.61343 43.4056 9.75342C42.9182 10.081 42.3349 9.93542 41.7981 9.85423C41.3573 9.78983 40.9547 9.78983 40.5248 9.91302C40.2263 9.99703 39.9962 10.263 39.7881 10.4814C39.5362 10.7474 39.339 10.9126 38.9967 10.6886C38.6243 10.4422 38.2847 10.1314 37.863 9.97183C37.496 9.83183 37.1619 9.83463 36.8032 9.99142C36.2966 10.2154 36.3075 11.0526 35.5955 10.7222C35.2121 10.543 34.8643 10.2826 34.4371 10.235C33.9469 10.179 33.5389 10.389 33.1062 10.599C32.8954 10.6998 32.6872 10.795 32.4517 10.8118C32.1587 10.8342 31.9013 10.6662 31.6521 10.5318C31.2468 10.3162 30.7703 10.1986 30.313 10.2686C29.8557 10.3386 29.4613 10.543 29.0779 10.8006C28.5385 11.159 28.1277 10.6298 27.7169 10.3134C27.0816 9.82623 26.1313 10.3946 25.5152 10.6186C25.3016 10.697 25.0962 10.7978 24.8826 10.8818C24.5923 10.9966 24.3349 10.9714 24.0309 10.9294C23.5654 10.865 23.1382 10.6298 22.6672 10.5738C22.0428 10.4982 21.1336 10.6914 20.6571 11.187C19.9835 10.8678 19.4166 10.4674 18.8333 9.98303C18.3185 9.55463 17.779 9.31103 17.1108 9.42023C16.5193 9.51543 16.0127 9.89902 15.3993 9.89342C14.6708 9.88503 14.0958 9.20743 13.4002 9.04223C12.7566 8.89103 12.1487 9.29703 11.6914 9.70863C11.4449 9.93263 11.2094 10.165 10.9383 10.3582C10.5522 10.6382 10.1606 10.711 9.69503 10.711C8.9885 10.711 8.54213 10.9546 8.16696 11.5594C7.76988 12.1978 7.50151 12.7494 6.74021 12.965C6.72652 12.965 6.71557 12.9622 6.70187 12.9622C6.51566 12.9482 6.33492 12.6598 6.22538 12.5282C5.99261 12.2426 5.74615 12.0466 5.37645 12.0074C4.77399 11.9458 4.62337 12.6682 4.16057 12.8614C3.89494 12.9734 3.54715 12.7858 3.28974 12.7158C3.01589 12.6402 2.73109 12.6402 2.49558 12.8166C2.22447 13.021 2.12315 13.3934 2.0629 13.7154C1.97801 14.1774 1.45222 14.239 1.09348 14.4126C0.521141 14.6842 -0.0840615 15.3674 0.011785 16.0534C0.0336928 16.2158 0.0747699 16.2998 0.173355 16.4258C0.304802 16.5994 0.581387 16.6806 0.603295 16.927C0.622465 17.1566 0.370525 17.4478 0.304802 17.6746C0.250032 17.865 0.244555 18.0806 0.274678 18.2766C0.340402 18.6966 0.545787 19.0662 0.732004 19.4414C0.849758 19.685 1.04145 19.8446 1.31804 19.8446C1.72607 19.8418 2.09029 19.4666 2.37509 19.1166C2.39973 19.139 2.42712 19.1558 2.4545 19.1698C2.19983 19.3938 1.98349 19.657 1.82739 19.965C1.45222 20.7126 1.75072 21.435 2.25459 21.9922C1.61379 22.2918 1.23314 23.0898 1.09622 23.7618C0.994897 24.2658 0.920958 24.7922 1.00037 25.3074C1.06336 25.7134 1.35911 26.0354 1.66856 26.2986C1.23041 26.7186 1.07431 27.2982 1.22219 27.9338C1.39471 28.6898 2.01909 29.0258 2.61607 29.3842C2.43533 29.7566 2.22995 30.115 2.13684 30.5266C2.04647 30.9186 2.05742 31.4898 2.36687 31.7866C2.5038 31.9154 2.6462 31.9798 2.8242 32.033C2.81598 32.0302 2.75847 32.5734 2.76395 32.6238C2.80229 33.0326 3.28426 33.3686 3.62109 33.5114C3.84839 33.6094 3.999 33.6402 4.23999 33.6234C4.4043 33.6122 4.27011 34.049 4.30023 34.1498C4.43716 34.6146 4.73017 34.8722 5.21215 34.819C5.52433 34.7826 5.58458 35.1774 5.71602 35.4042C5.81461 35.5722 6.03916 35.6478 6.21169 35.6982C6.49101 35.7766 6.42255 36.1378 6.41981 36.373C6.41434 36.8742 6.22538 37.2578 5.8639 37.5882C5.61196 37.8178 5.28608 37.9942 5.10808 38.2938C4.77399 38.8538 5.09713 39.3662 5.3655 39.859C5.04236 40.4694 5.04784 41.0742 5.32716 41.7266C5.59827 42.3566 5.88033 42.995 6.20073 43.6026C6.35409 43.891 6.52935 44.1682 6.74021 44.4118C6.9456 44.6498 7.12086 44.7758 7.17837 45.109C7.21123 45.3078 7.25505 45.4954 7.30982 45.6914C7.44126 46.1618 7.55902 46.6378 7.59736 47.125C7.622 47.433 7.60831 47.7494 7.59736 48.0574C7.58914 48.3626 7.49877 48.6706 7.49603 48.9702C7.49056 49.393 7.43579 49.8158 7.31529 50.2218C7.24683 50.4514 7.20575 50.5858 6.96751 50.597C6.74569 50.6082 6.52114 50.5858 6.29932 50.625C5.96523 50.681 5.68316 50.8294 5.64756 51.199C5.6147 51.535 5.93784 51.8934 6.11584 52.1398C6.7676 53.047 6.65258 54.2846 6.6252 55.3458C6.61972 55.5642 6.55126 55.9114 6.82784 55.9394C7.10717 55.9674 7.36732 56.0206 7.64939 56.0038C7.97253 55.9842 8.29293 55.9282 8.61607 55.9198C9.14186 55.9086 9.6649 55.847 10.1907 55.847C10.3167 55.847 10.3961 55.749 10.4043 55.6398C10.5248 55.5978 10.648 55.5586 10.7767 55.5474C10.9383 55.5334 11.056 55.3654 10.9657 55.2086C10.7959 54.9118 10.6015 54.6318 10.3879 54.3686C10.1359 54.0578 9.65669 53.8842 9.48964 53.5174C9.35272 53.215 9.37463 52.8538 9.35546 52.529C9.24592 50.8658 9.66216 49.211 10.2509 47.6766C10.6288 46.691 11.1026 45.739 11.6284 44.829C11.8968 44.3642 12.1843 43.9134 12.4801 43.4682C12.7539 43.0566 13.1291 42.7654 13.3153 42.2894C13.3399 42.2278 13.3345 42.1718 13.3125 42.1298C13.4851 42.085 13.6521 42.0402 13.811 41.9898C13.8849 42.3062 14.0273 42.6114 14.1642 42.9026C14.2792 43.1434 14.4463 43.345 14.6106 43.5494C14.7393 43.709 14.7448 43.8882 14.8488 44.0646C14.857 44.0814 14.868 44.0954 14.879 44.1122C15.0104 44.4202 15.0761 44.7786 15.1473 45.1006C15.3007 45.7726 15.3664 46.4642 15.3472 47.153C15.3308 47.7466 15.2432 48.399 14.9118 48.9002C14.6407 49.3118 14.1012 49.2782 13.7069 49.4798C12.8443 49.9194 13.5125 50.9582 13.8712 51.4846C14.5093 52.4226 14.9748 53.621 15.0652 54.769C15.0816 54.9734 15.0542 55.3486 15.235 55.4858C15.3801 55.5978 15.6457 55.539 15.81 55.5278C16.0976 55.5082 16.3851 55.5026 16.6727 55.4858C17.2395 55.4522 17.8119 55.385 18.3787 55.3794C18.4746 55.3794 18.543 55.3234 18.5759 55.2422C18.6142 55.2226 18.6471 55.1918 18.6717 55.1554H19.0387C19.1756 55.1554 19.2989 55.0098 19.2496 54.8698C19.1619 54.6094 19.0606 54.3546 18.9292 54.1138C18.8114 53.8982 18.6717 53.691 18.4937 53.523C18.3157 53.3522 18.1186 53.3102 17.9214 53.1926C17.6311 53.0162 17.6393 52.4702 17.5818 52.1706C17.3025 50.7342 17.475 49.2306 17.6914 47.7998C17.8612 46.6742 18.1679 45.5458 18.617 44.5042C18.7676 44.1542 18.962 43.8378 19.1428 43.5046C19.2742 43.261 19.329 43.0258 19.5152 42.8186C19.6905 42.6226 19.8246 42.379 19.8329 42.1102C20.8817 41.9954 21.6485 40.6878 21.3965 39.663C21.8511 39.4838 22.3276 39.2822 22.5823 38.8986C22.8917 39.0918 23.2395 39.229 23.5928 39.299C23.9762 39.3746 24.376 39.089 24.7484 39.2542C25.0962 39.4082 25.4056 39.6546 25.7178 39.8702C26.1861 40.1866 26.6681 40.1922 27.1829 40.0102C27.4896 39.9038 27.7909 39.761 28.1058 39.6798C28.4563 39.5874 28.8671 39.761 29.1984 39.859C29.5051 39.9514 29.8146 40.013 30.135 39.9822C30.4663 39.9486 30.8059 39.719 31.0935 39.5594C31.7178 39.2178 32.4244 39.4026 33.0652 39.1254C33.5444 38.9182 33.8922 38.4898 34.1058 38.0138C34.1277 38.025 34.1496 38.039 34.1742 38.0502C34.2263 38.0726 34.2756 38.1006 34.3221 38.1286C34.4809 38.2154 34.3687 38.3106 34.3112 38.4198C34.062 38.893 34.2756 39.4558 34.5905 39.8422C34.763 40.055 34.952 40.2426 35.1902 40.377C35.3244 40.4526 35.4641 40.5114 35.5216 40.6738C35.5709 40.811 35.4641 41.0014 35.4476 41.1414C35.3299 42.2222 36.083 42.8858 36.973 43.2414C36.951 43.6866 36.8935 44.1234 37.0989 44.5406C37.2468 44.843 37.5836 45.1594 37.915 45.235C38.0985 45.277 38.1724 45.2938 38.271 45.4842C38.3531 45.6438 38.3915 45.8258 38.438 45.9994C38.5202 46.3214 38.5667 46.6518 38.6078 46.9822C38.6653 47.461 38.7475 47.9454 38.7584 48.4242C38.7803 49.3342 38.6735 50.4458 38.1779 51.2214C37.978 51.535 37.5973 51.7646 37.4878 52.1342C37.3947 52.4478 37.507 52.7138 37.6713 52.9798C38.0191 53.5454 38.3915 54.0998 38.6434 54.7214C38.7584 55.0098 38.753 55.3738 38.9255 55.6398C39.1583 55.9982 39.9442 55.749 40.2783 55.7182C40.6452 55.6846 41.0286 55.679 41.3929 55.7378C41.5873 55.7686 41.7297 55.595 41.6421 55.4074C41.5763 55.2674 41.527 55.119 41.4887 54.9678C41.4531 54.8362 41.3764 54.6206 41.5353 54.6598C42.0912 54.797 42.2253 55.6426 42.7867 55.7378C42.9866 55.7714 43.1154 55.595 43.0359 55.4074C42.8744 55.035 42.6909 54.6738 42.4992 54.3182C42.3321 54.0102 42.0994 53.7218 41.9679 53.397C41.8721 53.159 41.7269 52.949 41.6256 52.7082C41.5298 52.4814 41.5161 52.1818 41.4148 51.9746C41.4997 52.1482 41.6147 52.3106 41.7078 52.4422C42.2609 53.215 42.847 53.9654 43.2276 54.8474C43.2468 55.0574 43.2851 55.2786 43.3646 55.4466C43.4741 55.679 43.7863 55.6286 43.9807 55.6006C44.3203 55.5502 44.6982 55.6258 45.0131 55.4494C45.3445 55.2646 45.2979 55.0126 45.3609 54.741C45.6238 54.9706 45.81 55.2842 46.103 55.4858C46.2399 55.581 46.4399 55.455 46.4344 55.2926C46.4152 54.7578 46.1989 54.265 45.9524 53.8002C45.8456 53.6014 45.7251 53.3466 45.5663 53.1842C45.276 52.8874 44.9145 52.515 44.8159 52.095C44.5421 50.9274 44.5558 49.7038 44.5941 48.511C44.6352 47.2258 44.6051 45.9378 44.6051 44.6526C44.6051 44.5966 44.5887 44.5518 44.564 44.5182C44.6763 44.4174 44.7831 44.3138 44.8954 44.2186C45.1747 43.9806 45.4403 43.7342 45.643 43.4262C45.8593 43.1014 45.7963 42.7374 45.7251 42.3762C45.6676 42.0794 45.9004 41.8414 46.0565 41.6286C46.177 41.4634 46.2509 41.273 46.292 41.0714C46.355 40.7494 46.2482 40.4274 46.1578 40.125C46.1058 39.9486 46.0702 39.7778 46.0674 39.593C46.0619 39.3858 46.2728 39.1674 46.3687 38.9994C46.5467 38.6942 46.6452 38.3106 46.5357 37.969C46.418 37.6022 46.2756 37.3082 46.4727 36.9358C46.7274 36.4542 47.4367 36.317 47.9077 36.1938C48.3458 36.0818 48.8963 36.0454 49.2002 35.701C49.2112 35.6926 49.2221 35.6814 49.2331 35.6702C49.5508 35.309 49.9451 35.2502 50.3833 35.1298C50.7201 35.0346 51.0378 34.847 51.2815 34.5922C51.5334 34.329 51.7059 34.0154 51.9825 33.7718C52.3002 33.489 52.6288 33.2398 52.8753 32.887C53.1272 32.5286 53.1984 32.0638 53.2477 31.6382C53.3216 31.0138 53.5517 30.4762 53.7105 29.8742C53.842 29.3758 53.9351 28.8746 54.1103 28.3874C54.2993 27.8638 54.5649 27.385 54.7292 26.8502C54.8689 26.3938 54.9428 25.9178 54.9921 25.4418C55.0551 24.8398 55.1838 24.3386 55.444 23.787C55.6603 23.3278 55.904 22.8882 56.0985 22.4206C56.2984 21.9474 56.4791 21.5694 56.8707 21.2334C57.213 20.9366 57.5252 20.707 57.7963 20.3318C58.1167 19.8838 58.4453 19.4974 58.8178 19.097C59.1327 18.761 59.3271 18.4222 59.4093 17.9658C59.4558 17.711 59.4805 17.4478 59.5188 17.193C59.5599 16.9102 59.6503 16.6358 59.6831 16.3502C59.7406 15.849 59.6941 15.3478 59.6886 14.8438C59.6831 14.3286 59.8392 13.8386 59.8721 13.3262C59.8803 13.203 59.8803 13.0826 59.8803 12.9594C60.0117 12.629 59.9542 12.2482 59.8584 11.901C59.8502 11.8702 59.8419 11.8422 59.8365 11.8142C59.8447 11.383 59.9761 10.9742 60.0802 10.5598C60.1377 10.4618 60.1925 10.3638 60.239 10.263C60.4335 9.82623 60.2774 9.45942 60.176 9.02542C60.0528 8.50183 60.3404 8.01183 60.2828 7.47983C60.2555 7.22223 60.0939 7.00383 60.072 6.74343C60.0501 6.46903 60.1158 6.20583 60.0638 5.93423C59.9926 5.56183 59.6941 5.27623 59.3901 5.05783C60.0309 5.13623 60.5293 5.56463 61.1153 5.88663C61.7205 6.21983 62.3887 6.30663 63.0624 6.19183C64.4262 5.96223 65.3572 4.92343 65.9405 3.71103C65.9433 3.70823 65.9433 3.70263 65.9433 3.69983C66.0227 3.59623 66.0364 3.43103 65.8885 3.35823ZM50.7968 1.87143C50.9775 1.64183 51.3773 1.65303 51.6347 1.60263C52.0126 1.52983 52.3111 1.34503 52.5877 1.07343C52.7301 0.93343 52.8506 0.79623 53.0478 0.74303C53.3052 0.67303 53.5736 0.81303 53.8091 0.89703C54.1788 1.03143 54.5375 0.83543 54.8497 0.64783C55.0688 0.51623 55.192 0.39863 55.4275 0.55263C55.6302 0.68423 55.7808 0.88303 55.9643 1.03703C56.2463 1.27503 56.6242 1.20783 56.9583 1.16303C57.1226 1.14063 57.3171 1.09583 57.4567 1.20783C57.7333 1.42903 57.9688 1.93583 57.8127 2.27463C57.8073 2.28583 57.8045 2.29423 57.8018 2.30263C57.7443 2.27743 57.6895 2.25223 57.632 2.22703C56.3257 1.70623 54.7867 2.45943 54.1788 3.70543C53.842 3.11183 53.3463 2.69183 52.6781 2.49863C52.0565 2.31943 51.2212 2.38943 50.5969 2.70023C50.5996 2.41183 50.6188 2.10103 50.7968 1.87143ZM50.6215 3.29663C51.1336 2.92143 51.9524 2.87663 52.5494 3.00823C52.9246 3.09223 53.2504 3.31343 53.4969 3.61583C53.6694 3.82583 53.8639 4.46703 54.1843 4.43063C54.5649 4.38583 54.6635 3.84823 54.8689 3.57943C55.1181 3.25463 55.4467 3.00263 55.8054 2.81223C56.3531 2.52103 56.9364 2.53223 57.506 2.73663C58.04 2.92983 58.5521 3.35263 58.7685 3.89863C58.9602 4.38303 58.7822 5.01303 58.6124 5.48623C58.4837 5.83903 58.2372 6.06863 57.9798 6.32623C57.6402 6.66783 57.3718 7.11023 57.1473 7.53583C56.6598 8.44583 56.4326 9.46503 56.3805 10.4926C56.3258 11.5622 56.5147 12.6402 56.8159 13.6594C57.1336 14.729 57.6868 15.709 57.2294 16.8318C57.2158 16.8682 57.2103 16.9018 57.2103 16.9326C56.4271 17.837 54.784 18.005 53.7379 17.7474C52.5494 17.4534 52.3057 16.2606 52.3111 15.1686C52.3166 13.9422 52.5905 12.7382 52.6315 11.5146C52.6863 9.86263 51.7662 8.60823 50.8433 7.34823C50.4545 6.81903 50.1094 6.30383 49.8575 5.69063C49.8547 5.68223 49.8493 5.67663 49.8465 5.67103C49.7644 5.45263 49.6959 5.23423 49.685 4.99343C49.6576 4.38303 50.1505 3.64103 50.6215 3.29663ZM58.229 7.40423C58.1989 7.48823 58.166 7.56663 58.1249 7.64223C58.1222 7.60303 58.1222 7.56383 58.1194 7.52463C58.1249 7.46303 58.1277 7.40143 58.1304 7.33983C58.1633 7.36223 58.1961 7.38183 58.229 7.40423ZM57.6265 8.08183C57.5663 8.10423 57.5033 8.11823 57.4321 8.12943C57.4732 8.03703 57.517 7.94463 57.5635 7.85223C57.5772 7.90823 57.5909 7.96703 57.6046 8.02303C57.6074 8.04263 57.6156 8.06223 57.6265 8.08183ZM56.8351 17.8594C56.7091 18.481 56.2792 18.8758 55.6137 19.0074C55.2304 19.083 54.7703 19.0718 54.4143 18.9038C54.1377 18.775 53.9268 18.5398 53.7571 18.285C54.3513 18.4082 55.0003 18.3718 55.5699 18.2794C56.0026 18.2094 56.4435 18.0722 56.8351 17.8594ZM50.1204 12.1474C49.9834 11.9178 49.7616 11.7638 49.6685 11.5034C49.5781 11.2542 49.6685 10.963 49.6329 10.7054C49.5672 10.2378 49.2002 10.039 48.7676 10.0978C48.595 10.1202 48.3979 10.207 48.2253 10.1706C47.9378 10.109 48.2089 9.45103 48.2527 9.30263C48.4006 8.81263 48.1103 8.47663 47.7242 8.23863C47.1929 7.91103 47.5791 7.27823 47.7872 6.84983C47.8091 6.80503 47.8146 6.76023 47.8091 6.71823C48.2719 6.35983 48.7402 6.02383 49.3043 5.79143C49.3125 5.78863 49.318 5.78303 49.3262 5.78023C49.37 5.89223 49.4166 6.00143 49.4604 6.11063C49.5316 6.28423 49.611 6.46903 49.7233 6.62303C49.663 6.65663 49.6192 6.71823 49.6247 6.81343C49.6274 6.87223 49.6302 6.92823 49.6302 6.98703C49.6247 6.98703 49.622 6.98983 49.6165 6.98983C49.5645 7.00383 49.5097 7.01503 49.4577 7.02623C49.4385 7.02903 49.4221 7.03183 49.4029 7.03463C49.4193 7.03183 49.3618 7.03743 49.3536 7.03743C49.1153 7.04303 49.077 7.36503 49.2441 7.46023C49.2413 7.46023 49.2413 7.46303 49.2386 7.46303C49.2249 7.46863 49.2139 7.47423 49.2002 7.47983C49.1674 7.48263 49.1318 7.49383 49.0962 7.51903C49.0168 7.57503 48.9647 7.63103 48.9593 7.73743C48.951 7.89423 49.1044 7.97823 49.2386 7.95303C49.2851 7.94463 49.3344 7.91663 49.381 7.89143C49.3755 7.93623 49.3837 7.98103 49.4084 8.02583C49.4659 8.12663 49.611 8.17423 49.7096 8.10703C49.7315 8.09023 49.7561 8.07343 49.7781 8.05663C49.7945 8.10143 49.8137 8.14903 49.8356 8.19383C50.0629 8.65023 50.616 8.73143 51.0624 8.73703C51.109 8.73703 51.1473 8.72583 51.1802 8.70343C51.5115 9.20743 51.8018 9.73663 51.9716 10.3302C52.3057 11.4922 51.9798 12.797 51.8593 13.9702C51.821 14.3398 51.7854 14.7318 51.7771 15.1266C51.6977 15.079 51.6156 15.0286 51.5389 14.9642C51.3691 14.8186 51.3527 14.5162 51.1966 14.3454C51.0378 14.169 50.8625 14.0682 50.6352 14.0122C50.3614 13.945 50.0629 13.9422 50.0245 13.5726C49.9807 13.049 50.4243 12.6598 50.1204 12.1474ZM50.1423 7.76823C50.156 7.75703 50.1697 7.74303 50.1806 7.73183C50.1834 7.74583 50.1888 7.75983 50.197 7.77383C50.2053 7.79063 50.2107 7.81023 50.2162 7.82983V7.94743C50.2107 7.93623 50.2053 7.92783 50.1998 7.91663C50.1751 7.86903 50.1587 7.81863 50.1423 7.76823ZM50.7201 8.03143C50.7803 8.11543 50.8406 8.19663 50.8981 8.28063C50.8488 8.27783 50.7995 8.27223 50.7502 8.26663C50.7447 8.18823 50.7365 8.10703 50.7201 8.03143ZM42.3376 5.40503C43.6329 4.66023 45.2541 5.17263 46.6398 5.16423C47.3244 5.16143 47.9871 4.98783 48.5321 4.55383C48.8223 4.32143 49.0852 4.06103 49.3837 3.84263C49.4385 3.80343 49.496 3.76983 49.5562 3.73903C49.3289 4.12823 49.1811 4.56783 49.1674 4.99623C49.1646 5.11943 49.1756 5.23983 49.2002 5.35743C49.1975 5.35743 49.1948 5.36023 49.192 5.36023C48.5348 5.62903 47.946 5.99863 47.3956 6.45783C46.8068 6.95343 46.218 7.42103 45.4704 7.63103C44.0902 8.02023 42.9127 6.56703 42.3376 5.40503ZM10.4125 55.1638C10.3577 55.1806 10.303 55.1946 10.2509 55.2114C10.1989 55.0546 10.1578 54.895 10.1113 54.7382C10.2208 54.8726 10.3194 55.0154 10.4125 55.1638ZM9.36093 54.181C9.48964 54.349 9.6074 54.5702 9.69229 54.7634C9.7142 54.8138 9.84838 55.4018 9.86755 55.399C9.44583 55.4102 9.02684 55.441 8.60238 55.4662C8.17791 55.4914 7.75071 55.5306 7.32625 55.5418C7.30434 55.5222 7.27695 55.5082 7.24409 55.4998C7.54533 55.1078 7.91228 54.7718 8.32305 54.503C8.55034 54.3518 9.13638 53.887 9.36093 54.181C9.35819 54.1782 9.36093 54.1782 9.36093 54.181ZM12.0173 43.345C11.6968 43.8266 11.3929 44.3194 11.1081 44.8234C10.5713 45.767 10.1113 46.761 9.73063 47.7802C9.04327 49.6142 8.64345 51.6834 9.06244 53.6294C8.28745 53.9262 7.60009 54.3966 7.06062 55.0238C7.08526 54.055 7.10169 53.0022 6.65806 52.165C6.49649 51.8598 6.10489 51.5546 6.08024 51.1934C6.06655 50.9974 7.16468 51.0422 7.32899 50.9806C7.63022 50.8658 7.7425 50.3394 7.80548 50.0622C7.9068 49.631 7.89859 49.1886 7.96705 48.7518C8.16696 47.4778 7.93419 46.3018 7.59188 45.0838C7.58914 45.0754 7.5864 45.0698 7.58366 45.0642C8.08754 45.2714 8.59142 45.1454 9.0597 44.8178C9.42939 44.5602 9.75527 44.339 10.177 44.1654C10.5549 44.0114 10.9848 43.891 11.3189 43.6474C11.8776 43.2442 12.2309 42.6114 12.8224 42.295C12.6197 42.6814 12.2528 42.9894 12.0173 43.345ZM16.0921 55.0602C15.9798 55.0658 15.8703 55.0658 15.758 55.0686C15.7471 55.0686 15.7388 55.0686 15.7306 55.0686C15.8347 54.8978 15.9196 54.7046 16.0017 54.601C16.3577 54.1586 16.8342 53.5902 17.4175 53.481C17.4394 53.4754 17.7708 53.9934 17.7954 54.0382C17.8831 54.195 17.9214 54.3714 18.0118 54.5254C18.083 54.6486 18.1569 54.7634 18.1487 54.9202C18.1487 54.9258 18.1487 54.9286 18.1487 54.9342C17.7544 54.951 17.3628 54.9902 16.9711 55.0154C16.6781 55.0322 16.3851 55.049 16.0921 55.0602ZM18.7128 54.699H18.5677C18.5047 54.3826 18.3459 54.097 18.1679 53.8198C18.4171 54.041 18.5896 54.3798 18.7128 54.699ZM18.6827 43.4094C18.606 43.5438 18.5266 43.6782 18.4499 43.8126C18.2062 44.2466 18.0309 44.7338 17.8666 45.2042C17.5161 46.2122 17.3052 47.2706 17.1656 48.329C16.9629 49.883 16.878 51.5322 17.3326 53.0358C16.9328 53.1142 16.5795 53.369 16.2701 53.649C16.0346 53.8618 15.8292 54.1082 15.6293 54.3574C15.5663 54.4358 15.5225 54.5114 15.4759 54.601C15.4732 54.601 15.4705 54.5982 15.4677 54.5982C15.3171 53.523 14.9529 52.473 14.4134 51.5406C14.1697 51.1206 13.7315 50.7006 13.7069 50.1854C13.6932 49.897 14.0328 49.8046 14.2464 49.7514C14.4901 49.6898 14.7092 49.631 14.92 49.491C15.8593 48.8638 15.821 47.2174 15.7443 46.229C15.6978 45.6242 15.5773 45.025 15.4184 44.4398C15.5581 44.4706 15.7005 44.4762 15.8183 44.451C16.2564 44.3614 16.6151 44.0674 16.8999 43.7258C17.475 43.8798 18.1651 43.6446 18.6882 43.3954C18.6882 43.3954 18.6854 43.4038 18.6827 43.4094ZM21.0597 39.3102C20.9584 39.3494 20.857 39.4642 20.9063 39.5874C21.2432 40.4442 20.5531 41.7322 19.5782 41.6622C19.4358 41.651 19.329 41.8134 19.3673 41.9478C19.5152 42.477 18.8059 42.8438 18.4335 43.0202C17.9981 43.2274 17.3628 43.429 16.889 43.2442C16.8233 43.219 16.7192 43.2442 16.6754 43.303C16.4673 43.5774 16.2181 43.8294 15.8977 43.9638C15.695 44.0478 15.5417 43.9974 15.35 43.919C15.3116 43.9022 15.2815 43.8826 15.2541 43.8574C15.2076 43.7202 15.1501 43.5774 15.0789 43.4542C14.9638 43.1378 14.638 42.9446 14.5147 42.6142C14.4134 42.3454 14.2683 42.1018 14.2135 41.819C14.46 41.6958 14.6873 41.5334 14.8954 41.2842C15.0515 41.0994 15.2404 40.839 15.2842 40.6094C15.3007 40.5198 15.3226 40.4274 15.3472 40.335C15.8018 40.4246 16.177 40.517 16.6398 40.2762C17.1136 40.027 17.4778 39.5818 17.6886 39.0834C17.9953 39.1758 18.2966 39.229 18.5485 38.9378C18.7183 38.739 18.8087 38.4618 18.8497 38.1874C19.2057 38.221 19.5152 38.0082 19.7644 37.6918C19.9013 37.5182 19.9561 37.3474 20.041 37.143C20.0492 37.1206 20.0547 37.1038 20.0601 37.0898C20.0629 37.0898 20.0684 37.087 20.0711 37.0842C20.0766 37.0898 20.0793 37.0954 20.0821 37.0982C20.2546 37.2718 20.4682 37.3586 20.6763 37.479C21.0241 37.6778 21.3472 37.9298 21.6649 38.1734C21.8593 38.3218 22.0346 38.4842 22.2208 38.6354C21.9935 39.0106 21.4431 39.1562 21.0597 39.3102ZM38.2874 44.8654C37.9095 44.7702 37.5617 44.577 37.4221 44.1738C37.3043 43.8406 37.4111 43.4234 37.4166 43.079C37.4193 42.9754 37.3481 42.8942 37.255 42.8634C36.8169 42.7094 36.3732 42.4966 36.0939 42.1046C35.9515 41.9058 35.8913 41.665 35.8748 41.4242C35.8584 41.1918 35.9652 40.993 35.9679 40.7662C35.9762 40.3322 35.664 40.125 35.3299 39.9374C35.0779 39.7946 34.878 39.5146 34.7411 39.2654C34.5631 38.9406 34.6726 38.7222 34.7986 38.417C34.9629 38.0138 34.6179 37.7758 34.3112 37.619C33.8128 37.3642 33.7799 36.6334 33.8128 36.1518C33.8429 35.7374 34.0264 35.4462 33.6676 35.1158C33.5006 34.9618 33.4485 34.8722 33.465 34.6398C33.4787 34.4494 33.5225 34.077 33.7333 34.0098C34.0017 33.923 33.8867 33.489 33.6156 33.5758C33.2185 33.7018 33.0925 34.119 33.0405 34.5026C33.0159 34.693 32.9994 34.8862 33.0569 35.0738C33.1254 35.3006 33.391 35.3678 33.465 35.5778C33.5033 35.6842 33.4075 35.8522 33.3938 35.9614C33.3746 36.0986 33.3664 36.2358 33.3609 36.373C33.35 36.667 33.391 36.961 33.4896 37.2382C33.5499 37.4118 33.643 37.563 33.7552 37.703C33.5389 38.291 33.0925 38.7054 32.4901 38.8482C32.2244 38.9098 31.9232 38.8622 31.6521 38.907C31.3207 38.9602 31.0606 39.0694 30.7703 39.229C30.4554 39.3998 30.1706 39.565 29.8036 39.5398C29.4887 39.5202 29.1738 39.383 28.8726 39.299C28.2372 39.1254 27.7443 39.3214 27.1501 39.5454C26.5914 39.7582 26.2245 39.6994 25.737 39.3382C25.4632 39.1366 25.1674 38.9546 24.858 38.8174C24.5677 38.6886 24.261 38.781 23.9597 38.8314C23.1656 38.963 22.5741 38.319 21.999 37.8794C21.7114 37.6582 21.4212 37.4398 21.1199 37.2382C20.9173 37.1038 20.6681 37.0142 20.4764 36.863C20.8214 36.625 21.0871 36.3282 21.2623 35.9306C21.3691 35.6898 21.5307 35.4518 21.5526 35.2138C21.8894 35.1774 22.1551 34.8694 22.3386 34.5194C22.6425 33.9398 22.7165 33.3042 22.5166 32.6938C23.2094 32.215 23.245 31.2658 22.8397 30.5546C23.1108 30.367 23.4038 30.1682 23.423 29.8098C23.4476 29.3114 23.1765 28.883 22.9191 28.4742C23.7516 27.8078 22.4782 26.0354 21.5855 26.0746C21.3034 26.0886 21.3007 26.5366 21.5855 26.5254C22.1386 26.5002 23.2258 27.8778 22.5001 28.2054C22.3906 28.253 22.3632 28.4182 22.4207 28.5134C22.6206 28.8466 22.8479 29.1602 22.9602 29.5382C23.0834 29.9554 22.6918 30.0982 22.4262 30.3054C22.3386 30.3726 22.2701 30.507 22.3468 30.6134C22.7603 31.1874 22.8424 32.0386 22.1332 32.4054C22.0182 32.4642 22.0072 32.607 22.0538 32.7134C22.2619 33.1838 22.229 33.6906 22.0264 34.1554C21.9086 34.4242 21.6841 34.9226 21.3308 34.7294C21.1145 34.609 20.8817 34.9002 21.0652 35.0822C21.2459 35.2642 20.8379 35.8214 20.742 35.9894C20.5805 36.2722 20.3039 36.4542 20.0355 36.6166C19.8712 36.7174 19.7261 36.7034 19.6521 36.905C19.5289 37.2382 19.2523 37.9578 18.7649 37.7254C18.6142 37.6526 18.4417 37.7394 18.4335 37.9186C18.4253 38.1286 18.376 38.3358 18.2911 38.5262C18.146 38.8482 17.8666 38.6774 17.6147 38.6018C17.4969 38.5654 17.3819 38.6438 17.3436 38.7586C17.1984 39.2122 16.9027 39.5902 16.5138 39.845C16.1332 40.0942 15.7963 39.9822 15.4047 39.901C15.3007 39.7526 15.0898 39.775 15.0131 39.9626C14.9502 40.1194 14.9146 40.2902 14.8735 40.4554C14.805 40.7326 14.5969 40.9846 14.386 41.1918C14.0821 41.4914 13.633 41.5978 13.2359 41.693C12.9209 41.7686 12.6005 41.8554 12.3349 42.0514C12.0255 42.281 11.7598 42.6058 11.4969 42.8886C11.1136 43.3002 10.6918 43.4906 10.1797 43.695C9.81004 43.8406 9.44583 43.9918 9.12269 44.227C8.75299 44.4986 8.39699 44.8206 7.90954 44.7086C7.24957 44.5546 6.82784 43.8602 6.52935 43.2974C6.18704 42.6506 5.83378 41.9394 5.60922 41.245C5.46135 40.7914 5.56541 40.3798 5.80092 39.9794C5.94606 39.7358 5.49969 39.243 5.42027 39.0078C5.23679 38.4506 5.83926 38.2266 6.13227 37.927C6.27193 37.7842 6.42803 37.6246 6.52935 37.4426C6.77581 37.1458 6.84154 36.7706 6.85523 36.3786C6.86892 35.9642 6.87166 35.6142 6.53483 35.351C6.4828 35.3118 6.38695 35.2894 6.3267 35.2698C6.10763 35.2026 6.02273 35.0654 5.9351 34.8722C5.86664 34.721 5.77353 34.4606 5.59827 34.4074C5.35181 34.3346 4.98759 34.4914 4.81781 34.2646C4.66171 34.0574 4.79316 33.7802 4.75756 33.545C4.68362 33.0774 4.2482 33.2734 3.94971 33.1698C3.70051 33.083 3.45678 32.9122 3.26783 32.7218C3.06518 32.5174 3.31986 32.215 3.28426 31.9826C3.26235 31.8454 3.17198 31.6774 3.03232 31.6354C2.7174 31.5374 2.55309 31.4002 2.53392 31.0334C2.5038 30.4314 2.8598 29.9414 3.08983 29.4178C3.13912 29.3058 3.12269 29.1798 3.01041 29.1098C2.575 28.8382 2.08207 28.6394 1.79727 28.1886C1.43031 27.6118 1.58367 26.8782 2.13136 26.5002C2.27924 26.3994 2.26555 26.2146 2.13136 26.111C1.82465 25.873 1.51795 25.5958 1.42758 25.1954C1.33173 24.7782 1.45496 24.3022 1.52342 23.8906C1.63296 23.2438 2.04099 22.4234 2.7393 22.3254C2.90087 22.303 2.95291 22.051 2.83515 21.9502C2.53118 21.6814 2.26281 21.3734 2.12589 20.9814C1.98349 20.5726 2.20804 20.1162 2.45998 19.8054C2.67358 19.5422 2.95017 19.3378 3.22949 19.1558C3.45131 19.0102 3.71968 19.0018 3.93328 18.8198C4.00722 18.7582 4.04829 18.5286 3.97436 18.4474C3.90589 18.3774 3.77445 18.411 3.69229 18.4278C3.48417 18.4698 3.27605 18.565 3.08983 18.6658C3.0022 18.7134 2.91183 18.7498 2.81598 18.7806C2.67358 18.8254 2.67084 18.8058 2.67632 18.6602C2.68453 18.4754 2.42164 18.3466 2.30115 18.5006C2.14779 18.6938 1.4933 19.6122 1.20302 19.3714C1.07705 19.2678 1.00859 19.0186 0.937389 18.8758C0.841542 18.6826 0.764865 18.4866 0.715573 18.2766C0.603295 17.7978 0.970251 17.487 1.02776 17.0502C1.07431 16.6862 0.89905 16.4762 0.633418 16.2606C0.288371 15.9778 0.491018 15.569 0.729265 15.275C0.95382 14.9978 1.26327 14.813 1.58367 14.6758C1.87121 14.5526 2.19161 14.505 2.35318 14.1914C2.51475 13.8778 2.47093 13.3934 2.76943 13.1666C2.96934 13.0154 3.35272 13.2142 3.55537 13.2758C4.08663 13.4354 4.48097 13.2786 4.8315 12.8586C4.97938 12.6822 5.12178 12.4694 5.36824 12.4666C5.70233 12.461 5.95701 12.9342 6.1624 13.1498C6.81689 13.8218 7.69046 13.1134 8.10397 12.5198C8.28471 12.2622 8.42438 11.9738 8.59142 11.7078C8.82693 11.327 9.11995 11.1926 9.55536 11.173C9.92232 11.1562 10.2619 11.1786 10.6124 11.047C10.889 10.9434 11.1409 10.7782 11.371 10.5906C11.9324 10.1342 12.4308 9.45662 13.214 9.47622C13.5891 9.48743 13.9451 9.76183 14.2518 9.95222C14.5257 10.123 14.8187 10.2434 15.1336 10.3162C15.6923 10.4506 16.24 10.1846 16.7521 9.99423C17.0533 9.88223 17.3655 9.80383 17.6859 9.85703C18.0748 9.92422 18.4116 10.2182 18.7046 10.4674C19.2879 10.9686 19.8931 11.3466 20.5942 11.6574C20.7119 11.7106 20.8214 11.6854 20.8954 11.5762C21.1062 11.2682 21.5773 11.159 21.9114 11.0722C22.418 10.9406 22.8726 11.0638 23.3573 11.2206C23.7407 11.3438 24.1898 11.4698 24.5978 11.4138C25.0332 11.3522 25.4714 11.1282 25.8712 10.9518C26.2546 10.7838 26.6517 10.6158 27.0706 10.5962C27.5334 10.5738 27.8867 11.0974 28.2893 11.2878C28.6507 11.4586 28.9602 11.3914 29.2888 11.187C29.7927 10.8734 30.2746 10.6214 30.8826 10.7278C31.3673 10.8146 31.7452 11.1926 32.2354 11.2458C32.6681 11.2934 33.0378 11.1198 33.4184 10.935C33.9661 10.669 34.3632 10.5962 34.9191 10.8734C35.3299 11.0778 35.716 11.3802 36.1898 11.2206C36.595 11.0862 36.6772 10.5906 37.0113 10.3806C37.4631 10.0978 38.0683 10.5822 38.4216 10.8342C38.6955 11.033 38.9556 11.2598 39.3089 11.2654C39.5964 11.271 39.8401 11.047 40.0318 10.8538C40.3741 10.5122 40.6069 10.2854 41.1135 10.2546C41.6804 10.2182 42.2363 10.4254 42.8059 10.4086C43.2468 10.3946 43.663 10.1566 43.9834 9.85983C44.1614 9.69463 44.3641 9.56303 44.501 9.38383C44.5147 9.42583 44.5284 9.46502 44.5448 9.50423C44.6927 9.89062 44.8214 10.1118 44.6544 10.5206C44.5147 10.8594 44.4736 11.1982 44.6297 11.5398C44.8296 11.9822 45.15 12.3742 45.109 12.8866C45.0925 13.0966 45.0022 13.2954 44.9611 13.5026C44.9282 13.6678 44.9583 13.847 44.9885 14.0094C45.1035 14.6506 46.0811 14.7262 46.0811 15.3786C46.0811 15.7566 46.0099 16.0198 46.2235 16.3614C46.4234 16.6778 46.7028 16.9326 46.8972 17.2546C47.0861 17.571 47.2532 17.8902 47.5051 18.159C47.7954 18.467 48.2582 18.5622 48.4061 19.0018C48.5074 19.307 48.4335 19.6514 48.5704 19.951C48.6799 20.1862 48.8579 20.3178 49.0989 20.3934C49.4221 20.4942 49.7479 20.4662 50.0601 20.6314C50.4545 20.8442 50.7557 21.2474 51.035 21.589C51.2185 21.813 51.5252 21.491 51.3472 21.2698C50.8899 20.7098 50.4079 20.1582 49.674 20.0378C49.4467 20.0014 49.1236 20.0154 48.9839 19.7942C48.8141 19.5226 48.9017 19.0942 48.8004 18.789C48.7018 18.4866 48.4472 18.2794 48.198 18.1114C47.8584 17.8818 47.642 17.6578 47.4339 17.2994C47.2559 16.9942 47.0588 16.7254 46.8534 16.4398C46.7575 16.3054 46.6398 16.1878 46.5494 16.0478C46.4262 15.849 46.4974 15.597 46.5193 15.3786C46.5823 14.7626 45.9688 14.4938 45.5909 14.1634C45.2842 13.8946 45.4075 13.5138 45.506 13.175C45.6074 12.8222 45.569 12.4638 45.4184 12.1334C45.224 11.7022 44.8707 11.2962 45.0159 10.8006C45.1117 10.4786 45.2377 10.2686 45.1719 9.92142C45.1117 9.59103 44.8844 9.31943 44.8625 8.97503C44.8378 8.59983 45.2733 8.42063 45.4431 8.13223C45.4458 8.12663 45.4485 8.12103 45.4513 8.11543C46.0483 7.98663 46.6096 7.64783 47.0889 7.28663C47.0998 7.27823 47.1108 7.26983 47.1217 7.26143C47.0341 7.50223 46.9821 7.75143 47.0177 8.00343C47.0505 8.21623 47.1628 8.38703 47.3271 8.51583C47.5681 8.70903 47.9132 8.79583 47.8255 9.19063C47.7324 9.61343 47.4777 10.221 47.9515 10.5346C48.1103 10.641 48.2856 10.6494 48.4663 10.6158C48.7018 10.5738 49.0989 10.4086 49.192 10.7446C49.2605 10.9882 49.1592 11.271 49.2167 11.523C49.2797 11.7974 49.4193 11.999 49.6001 12.2062C49.8246 12.4666 49.8137 12.6094 49.7178 12.9286C49.6439 13.175 49.5398 13.4662 49.6083 13.7266C49.7507 14.267 50.1368 14.351 50.6023 14.4658C50.9446 14.5498 50.972 14.911 51.1309 15.163C51.1993 15.2722 51.3061 15.3506 51.4047 15.429C51.4951 15.5018 51.6621 15.527 51.7306 15.6194C51.747 15.6418 51.7689 15.6614 51.7881 15.6754C51.8237 16.2634 51.9524 16.8346 52.2619 17.3246C52.4809 17.6718 52.7767 17.9154 53.1163 18.0778C53.0943 18.1394 53.0971 18.2122 53.1409 18.285C53.4093 18.7498 53.7434 19.1698 54.2308 19.3966C54.5403 19.5422 54.8853 19.5786 55.2249 19.5674C55.1099 19.8838 54.6744 20.0322 54.4773 20.2898C54.2034 20.6454 54.1377 21.127 54.0939 21.561C54.0665 21.8326 54.0446 22.1014 53.9761 22.3674C53.9049 22.653 53.7269 22.8826 53.5763 23.1262C53.3353 23.507 53.1491 23.9214 53.0067 24.3498C52.8561 24.7978 52.7986 25.2066 52.8315 25.677C52.8671 26.1838 52.5603 26.4694 52.2591 26.8166C51.6211 27.553 51.9141 28.6282 51.402 29.4262C51.1884 29.7566 50.8954 30.031 50.6681 30.353C50.4408 30.6806 50.3449 31.067 50.2847 31.459C50.2217 31.8734 50.197 32.3046 50.0054 32.6826C49.7671 33.1502 49.1619 33.3686 48.7758 33.6906C48.6087 33.8306 48.4828 34.021 48.3486 34.1946C48.1843 34.4102 48.0227 34.5082 47.7735 34.6034C47.2833 34.7882 46.7822 34.987 46.2646 35.0682C46.04 35.1018 45.8264 35.1186 45.6183 35.2166C45.4376 35.3006 45.2787 35.4518 45.1309 35.5862C44.7776 35.9054 44.3449 36.1434 44.0355 36.5074C43.9862 36.5298 43.9506 36.5774 43.9396 36.653C43.863 37.1766 43.863 37.6974 43.8575 38.2238C43.852 38.8174 43.5645 39.1758 43.329 39.6826C43.1427 40.0858 43.4385 40.5842 43.1345 40.9146C42.8552 41.2198 42.4855 41.4298 42.3294 41.8358C42.1541 42.2894 42.2664 42.7934 41.7954 43.0706C41.3956 43.3058 41.0067 43.3422 40.752 43.7818C40.6452 43.9666 40.6151 44.185 40.4755 44.353C40.3084 44.5574 39.9634 44.535 39.7306 44.5966C39.2568 44.7254 38.9227 44.9914 38.4134 44.8962C38.3751 44.8878 38.3312 44.8766 38.2874 44.8654ZM39.1555 54.8502C38.9529 54.1978 38.6078 53.579 38.2354 53.0218C38.1313 52.8678 38.0245 52.7222 37.9342 52.557C37.7972 52.2994 37.9944 52.1062 38.1587 51.9326C38.4435 51.6302 38.6845 51.297 38.8351 50.8994C39.161 50.0342 39.2459 48.945 39.1774 48.0266C39.1117 47.1558 39.0104 46.2038 38.6982 45.3778C38.8488 45.3806 39.0049 45.3554 39.1583 45.3078C39.4321 45.2238 39.6895 45.1006 39.9661 45.0194C40.2016 44.9522 40.4481 44.9354 40.6507 44.7898C40.6699 45.053 40.711 45.3106 40.7657 45.571C40.8506 45.963 40.8205 46.3942 40.815 46.7918C40.8041 47.5618 40.7876 48.3318 40.7685 49.1018C40.7493 49.8158 40.7164 50.5438 40.8342 51.2522C40.8917 51.6022 40.9629 51.9466 41.0478 52.2882C41.1026 52.5038 41.1519 52.7138 41.1847 52.9322C41.1984 53.0302 41.2614 53.1394 41.2587 53.229C41.0149 53.3158 40.7329 53.5034 40.5193 53.6546C40.4015 53.7358 40.2892 53.8338 40.177 53.9206C39.8045 54.209 39.4321 54.4526 39.1555 54.8502ZM41.5407 53.5986C41.7187 53.7274 41.8967 54.1586 41.9761 54.3014C42.0145 54.3714 42.0528 54.4414 42.0912 54.5114C42.0747 54.4974 42.0583 54.4834 42.0419 54.4722C41.7981 54.2818 41.5133 54.0914 41.2066 54.2594C40.8944 54.4274 40.9766 54.895 41.1026 55.2618C40.533 55.231 39.9661 55.3178 39.3965 55.3542C39.3773 55.3542 39.5663 55.0042 39.5882 54.9762C39.6731 54.8726 39.7662 54.7634 39.862 54.6738C40.1167 54.4358 40.4234 54.2062 40.711 54.0074C40.8945 53.8814 41.2121 53.551 41.4476 53.5622C41.4805 53.5622 41.5106 53.5762 41.5407 53.5986ZM41.6694 50.5662C41.5133 50.8322 41.3545 51.045 41.2997 51.3418C41.1847 50.6446 41.1902 49.9474 41.2066 49.2418C41.2258 48.4718 41.234 47.7046 41.2532 46.9346C41.2641 46.5454 41.2614 46.159 41.2395 45.7698C41.2149 45.3666 41.0916 44.983 41.0807 44.5742V44.5714C41.1053 44.5798 41.13 44.5882 41.1546 44.5966C41.1573 44.6246 41.1656 44.6554 41.1847 44.6862C41.3956 45.067 41.412 45.5514 41.486 45.9742C41.5818 46.5258 41.7269 47.0634 41.7817 47.6206C41.831 48.1414 41.8885 48.6594 41.9077 49.183C41.9186 49.673 41.9186 50.1434 41.6694 50.5662ZM43.3591 54.125C43.0168 53.4866 42.5813 52.907 42.1569 52.3218C41.8611 51.913 41.5763 51.5294 41.8885 51.0422C42.072 50.7566 42.2609 50.4738 42.3075 50.1266C42.4335 49.1578 42.2637 48.1666 42.1815 47.2006C42.1405 46.7106 41.9707 46.2094 41.8858 45.7222C41.8283 45.389 41.7954 45.0474 41.6831 44.731C41.7625 44.7478 41.8365 44.7674 41.894 44.787C42.2226 44.9018 42.4965 45.0726 42.8552 45.123C43.266 45.179 43.6548 45.0894 44.0273 44.9074C44.0738 44.885 44.1176 44.8598 44.1614 44.8318C44.1642 46.1058 44.1861 47.3798 44.145 48.6538C44.1039 49.9166 44.1231 51.283 44.4599 52.5066C44.4627 52.515 44.4654 52.5206 44.4682 52.5262C43.9725 52.921 43.5727 53.5034 43.3591 54.125ZM44.742 52.8706C44.92 53.2206 45.2459 53.4866 45.4513 53.8226C45.6046 54.0746 45.7552 54.349 45.8566 54.6402C45.7142 54.475 45.5663 54.3126 45.3691 54.1978C45.2651 54.1362 45.1309 54.1726 45.0679 54.279C44.9583 54.4638 44.931 54.6486 44.92 54.8614C44.9036 55.1554 44.4572 55.1302 44.2463 55.1386C44.0656 55.147 43.8849 55.175 43.7014 55.1778C43.7479 55.1778 43.6932 54.8502 43.663 54.6626C43.7781 53.999 44.2135 53.285 44.742 52.8706ZM59.2422 14.9754C59.2504 15.6138 59.2669 16.185 59.1299 16.815C59.0204 17.319 59.067 17.907 58.815 18.3662C58.5603 18.8282 58.0948 19.1446 57.7799 19.5618C57.4759 19.965 57.2459 20.385 56.8351 20.6902C56.512 20.931 56.2299 21.1942 56.0053 21.533C55.737 21.939 55.6055 22.443 55.3892 22.8826C55.1592 23.3474 54.9209 23.8038 54.7456 24.291C54.5731 24.7698 54.5704 25.2682 54.5019 25.7666C54.4307 26.2958 54.2856 26.8082 54.0939 27.3038C53.9049 27.7966 53.6585 28.2502 53.5133 28.7626C53.3627 29.3002 53.2696 29.849 53.0807 30.3782C52.8917 30.9074 52.8424 31.4086 52.7493 31.9602C52.6589 32.495 52.3577 32.8506 51.9661 33.1894C51.7388 33.3882 51.4704 33.573 51.2952 33.825C51.1254 34.0686 50.9638 34.315 50.7174 34.483C50.4298 34.679 50.082 34.7406 49.7534 34.8274C49.5261 34.889 49.307 35.0038 49.1126 35.1354C48.9593 35.239 48.8798 35.4406 48.7155 35.5246C48.5403 35.617 48.3349 35.6198 48.1459 35.6702C47.8967 35.7346 47.6475 35.7934 47.4011 35.8662C46.9574 35.995 46.4919 36.1826 46.1879 36.555C45.9168 36.8882 45.7799 37.5574 46.0154 37.9494C46.2646 38.3638 45.988 38.7586 45.7635 39.1142C45.5937 39.383 45.6019 39.6546 45.6484 39.9626C45.7005 40.2902 45.8566 40.5814 45.8566 40.9174C45.8538 41.3094 45.465 41.6202 45.3171 41.959C45.1473 42.3454 45.465 42.7486 45.2924 43.1238C45.1473 43.4402 44.8242 43.6838 44.5695 43.9022C44.2737 44.157 43.9971 44.4454 43.6329 44.5938C43.2249 44.7618 42.7895 44.6918 42.3897 44.5406C42.1651 44.4566 41.9761 44.339 41.7406 44.2718C41.6174 44.2354 41.4942 44.2046 41.3709 44.1682C41.3052 44.1486 41.2422 44.129 41.1765 44.1066C41.1382 44.0926 41.119 44.0814 41.1108 44.073C41.2231 43.863 41.3655 43.7342 41.6311 43.6278C42.0665 43.4542 42.3924 43.2526 42.5731 42.7934C42.6662 42.5582 42.6471 42.2754 42.7238 42.0318C42.8059 41.763 43.0715 41.5698 43.2687 41.3934C43.5864 41.1106 43.8054 40.7746 43.7041 40.321C43.5782 39.761 44.1478 39.2654 44.2546 38.725C44.3778 38.1006 44.2737 37.4426 44.3586 36.8126C44.6462 36.485 45.0432 36.275 45.3636 35.9782C45.5608 35.799 45.7498 35.6058 46.0181 35.5554C46.2619 35.5106 46.5083 35.4882 46.752 35.4322C47.2532 35.3174 47.7625 35.0934 48.2418 34.903C48.6525 34.7378 48.8798 34.1582 49.2358 33.8922C49.5864 33.629 50.0163 33.447 50.2792 33.0774C50.5284 32.7246 50.6105 32.313 50.6681 31.8874C50.7283 31.459 50.7749 31.039 50.9939 30.661C51.2075 30.2914 51.5362 30.0002 51.7799 29.6502C52.3221 28.8718 52.0099 27.777 52.6288 27.0602C52.8753 26.7774 53.1382 26.5366 53.2231 26.153C53.2669 25.957 53.2751 25.761 53.2614 25.5622C53.2395 25.2542 53.2833 24.9938 53.36 24.6942C53.486 24.2154 53.6996 23.7702 53.9542 23.3502C54.239 22.877 54.428 22.4906 54.4964 21.9306C54.5567 21.435 54.5348 20.8134 54.9319 20.4522C55.1975 20.2114 55.5206 20.0406 55.6493 19.6822C55.6712 19.6206 55.6658 19.5674 55.6439 19.5254C55.6767 19.5198 55.7096 19.517 55.7397 19.5114C56.7557 19.3462 57.3582 18.5202 57.3773 17.501C57.3773 17.4898 57.3746 17.4814 57.3746 17.4702C57.3718 17.431 57.6347 17.1706 57.6703 17.1062C57.7552 16.9578 57.8155 16.7954 57.8511 16.6274C57.9332 16.2578 57.925 15.8518 57.8702 15.4794C58.3139 15.3142 58.6096 14.9362 58.8342 14.5274C58.9739 14.2754 58.941 13.9842 59.1327 13.7574C59.2121 13.6622 59.3052 13.581 59.3983 13.4998C59.3709 13.9982 59.2367 14.4686 59.2422 14.9754ZM59.6147 6.41863C59.5626 6.91143 59.8529 7.30903 59.8529 7.78783C59.8529 7.98943 59.7653 8.19663 59.7187 8.38983C59.6694 8.60263 59.6913 8.80703 59.7215 9.01983C59.7488 9.21583 59.8146 9.40343 59.8693 9.59103C59.9789 9.98023 59.6804 10.3386 59.5298 10.6718C59.4175 10.9182 59.3408 11.1786 59.3326 11.453C59.3271 11.5902 59.3545 11.7246 59.3874 11.859C59.3846 12.195 59.412 12.531 59.423 12.867C59.2231 13.2254 58.7247 13.3682 58.6069 13.791C58.47 14.2782 58.3002 14.8242 57.799 15.0314C57.7279 14.7402 57.632 14.4518 57.5252 14.1578C57.1446 13.1078 56.9063 12.0214 56.8844 10.8986C56.8707 10.1034 56.9939 9.31663 57.2541 8.57743C57.2623 8.57743 57.2705 8.58023 57.2787 8.58023C58.0154 8.58863 58.4207 8.14623 58.6288 7.56663C58.6671 7.57503 58.7055 7.58063 58.7438 7.58063C58.9821 7.59183 59.0177 7.27823 58.8561 7.16903C58.9574 7.16343 59.0587 7.14103 59.1464 7.10183C59.2066 7.07383 59.2422 7.01223 59.2504 6.94503C59.36 6.85823 59.3983 6.66223 59.245 6.56423C59.1573 6.50823 59.0724 6.47743 58.9739 6.46903C58.941 6.46623 58.6918 6.46623 58.6754 6.48863C58.7657 6.33463 58.8972 6.20023 58.9711 6.03783C59.056 5.85303 59.1108 5.64303 59.171 5.44703C59.475 5.68783 59.6612 5.96503 59.6147 6.41863ZM62.7557 5.77743C61.4385 5.94263 60.5759 4.69383 59.3545 4.59303C59.3819 4.26263 59.3463 3.93223 59.1984 3.61023C59.1163 3.43383 59.0149 3.27143 58.8999 3.12583C59.1272 3.19583 59.3518 3.26583 59.5791 3.34423C60.2336 3.56543 60.899 3.59063 61.5836 3.56823C62.2491 3.54863 62.8734 3.34983 63.5307 3.26583C64.1989 3.18183 64.8588 3.36943 65.4668 3.64663C64.8917 4.75823 64.0373 5.61783 62.7557 5.77743Z" fill="#B35229"/>
<path d="M56.6426 14.879C56.3277 14.6382 55.9142 14.7474 55.6185 14.9602C55.4651 15.0722 55.3337 15.215 55.205 15.355C55.1584 15.4054 55.1064 15.4726 55.0489 15.5286C54.7778 15.2542 54.5861 14.8902 54.2191 14.7334C53.9124 14.6046 53.5181 14.6942 53.4989 15.0862C53.4688 15.7806 54.252 16.2034 54.8626 16.1726C54.775 16.1782 54.7805 17.0658 54.9448 17.1246C55.1201 17.1862 55.2734 16.3434 55.3391 16.2566C55.4514 16.1054 55.7773 16.0606 55.9443 16.0046C56.1634 15.9318 56.3825 15.8534 56.5578 15.6938C56.7933 15.4782 56.9466 15.1114 56.6426 14.879ZM54.2246 15.5594C54.0767 15.4922 53.9809 15.2906 53.9425 15.1394C53.9398 15.131 53.9398 15.1254 53.937 15.1198C54.0603 15.1142 54.1726 15.2094 54.2574 15.2878C54.3944 15.4138 54.5039 15.565 54.6217 15.7078C54.4765 15.6742 54.3314 15.6098 54.2246 15.5594ZM56.3715 15.2346C56.3222 15.3466 56.1908 15.4222 56.0895 15.4782C55.9087 15.579 55.7116 15.6294 55.5171 15.6882C55.6869 15.4978 55.8512 15.2934 56.0977 15.2094C56.1497 15.1926 56.2072 15.187 56.262 15.1926C56.3003 15.1982 56.3359 15.2122 56.3715 15.2346Z" fill="#B35229"/>
<path d="M50.4783 7.85962H50.4592C50.3797 7.85962 50.3113 7.92682 50.3113 8.01082C50.3113 8.09202 50.377 8.16202 50.4592 8.16202H50.4783C50.5578 8.16202 50.6262 8.09482 50.6262 8.01082C50.6235 7.92682 50.5578 7.85962 50.4783 7.85962Z" fill="white"/>
<path d="M57.8805 7.57959C57.6915 7.57959 57.6915 7.87919 57.8805 7.87919C58.0694 7.87919 58.0694 7.57959 57.8805 7.57959Z" fill="white"/>
<path d="M7.69514 18.743C7.19948 19.2526 6.63536 19.9022 6.7312 20.6778C6.77502 21.039 6.96397 21.3442 7.14197 21.6522C7.28711 21.9042 7.43225 22.1702 7.39117 22.4726C7.31176 23.069 6.81883 23.5198 6.71477 24.1134C6.66 24.4298 6.72299 24.735 6.91468 24.9926C7.13376 25.2894 7.40761 25.5134 7.53084 25.8802C7.59656 26.0734 7.62394 26.275 7.61573 26.4794C7.60751 26.681 7.54453 26.8742 7.49524 27.0674C7.38844 27.4706 7.32819 27.885 7.60751 28.2294C7.78825 28.4506 8.09496 28.1342 7.91696 27.913C7.72527 27.6778 7.89779 27.269 7.96352 27.0142C8.05388 26.6614 8.08401 26.3142 8.00733 25.9558C7.93065 25.603 7.75813 25.2866 7.51988 25.0206C7.32545 24.7994 7.10637 24.595 7.1365 24.2702C7.16114 24.0238 7.28985 23.7914 7.40487 23.5786C7.54453 23.3154 7.69514 23.0522 7.7773 22.7638C7.86219 22.4726 7.85671 22.1646 7.74718 21.879C7.62668 21.5626 7.42677 21.2938 7.2789 20.9914C6.91468 20.2382 7.51441 19.5662 8.00459 19.0594C8.2045 18.855 7.89505 18.5358 7.69514 18.743Z" fill="#B35229"/>
<path d="M10.9429 14.1819C10.6416 14.8147 10.3349 15.4979 10.3377 16.2175C10.3404 16.5507 10.4198 16.8727 10.5677 17.1695C10.6991 17.4271 10.8717 17.6595 11.0195 17.9087C11.1537 18.1355 11.2715 18.3819 11.2523 18.6535C11.2331 18.9419 11.0661 19.2051 10.9347 19.4515C10.7923 19.7203 10.6663 19.9975 10.6389 20.3027C10.6088 20.6443 10.7101 20.9803 10.8333 21.2939C11.0223 21.7839 11.4166 22.5819 10.8963 23.0047C10.8032 23.0803 10.8196 23.2427 10.8963 23.3211C10.9867 23.4135 11.1127 23.3967 11.2058 23.3211C11.6631 22.9487 11.6412 22.2627 11.4769 21.7475C11.3728 21.4227 11.214 21.1175 11.1263 20.7843C11.0442 20.4763 11.0716 20.1879 11.203 19.8995C11.4577 19.3479 11.8274 18.8411 11.6384 18.1999C11.4687 17.6287 10.9894 17.2199 10.8333 16.6487C10.6252 15.8843 11.0004 15.0807 11.3208 14.4059C11.444 14.1511 11.0661 13.9243 10.9429 14.1819Z" fill="#B35229"/>
<path d="M13.3281 24.4075C13.8813 24.8723 13.769 25.6787 13.5499 26.2891C13.2706 27.0619 12.8023 27.8123 12.8872 28.6691C12.9255 29.0527 13.0789 29.3803 13.2952 29.6883C13.4787 29.9515 13.7115 30.2147 13.7936 30.5311C13.947 31.1079 13.3719 31.5811 13.1391 32.0459C12.9639 32.3987 12.9392 32.7515 13.0789 33.1267C13.1419 33.2975 13.2542 33.4963 13.2323 33.6839C13.2186 33.7959 13.1665 33.9303 13.0433 33.9163C12.9255 33.9051 12.8242 34.0283 12.8242 34.1403C12.8242 34.2719 12.9255 34.3531 13.0433 34.3643C13.4185 34.4035 13.6512 34.0171 13.6732 33.6783C13.6951 33.2863 13.3801 32.9587 13.4239 32.5723C13.4568 32.2811 13.6595 32.0263 13.821 31.7939C13.9963 31.5391 14.1825 31.2647 14.2373 30.9511C14.303 30.5815 14.188 30.2343 13.9936 29.9235C13.8073 29.6239 13.5554 29.3579 13.4185 29.0275C13.0679 28.1931 13.6376 27.2775 13.9306 26.5215C14.2318 25.7431 14.3523 24.6847 13.6403 24.0855C13.4212 23.9091 13.109 24.2255 13.3281 24.4075Z" fill="#B35229"/>
<path d="M18.1779 17.6959C17.8219 18.0627 17.6055 18.5387 17.5453 19.0511C17.5151 19.3003 17.5261 19.5495 17.5754 19.7931C17.6329 20.0703 17.7561 20.3279 17.8739 20.5855C17.9944 20.8515 18.082 21.1287 18.0902 21.4227C18.1012 21.7279 18.0327 22.0107 17.9287 22.2935C17.8356 22.5539 17.726 22.8255 17.7452 23.1083C17.7643 23.4051 17.9122 23.6179 18.0875 23.8447C18.386 24.2311 18.6626 24.9479 18.145 25.2895C17.9095 25.4463 18.1286 25.8327 18.3668 25.6759C18.8241 25.3735 18.9638 24.7827 18.8077 24.2675C18.7256 23.9987 18.5804 23.7635 18.4106 23.5451C18.3394 23.4527 18.26 23.3603 18.2162 23.2511C18.1642 23.1223 18.1779 22.9795 18.208 22.8479C18.2737 22.5707 18.4052 22.3131 18.4681 22.0359C18.5366 21.7307 18.5448 21.4171 18.4955 21.1063C18.4079 20.5435 18.0218 20.0759 17.9725 19.5047C17.9232 18.9559 18.1067 18.4043 18.4873 18.0095C18.6872 17.8079 18.3778 17.4887 18.1779 17.6959Z" fill="#B35229"/>
<path d="M24.7696 14.5292C24.2822 14.8848 23.97 15.4672 23.9947 16.086C24.0056 16.3968 24.096 16.7048 24.2521 16.9708C24.4109 17.2368 24.6272 17.4328 24.8737 17.6092C25.0544 17.738 25.4077 17.976 25.2954 18.2504C25.2516 18.3596 25.1339 18.4352 25.0462 18.5024C24.9093 18.6004 24.7696 18.6956 24.6355 18.7964C24.1644 19.1548 23.729 19.684 23.8824 20.3308C23.9591 20.6584 24.2083 20.874 24.504 20.9944C24.7724 21.1036 25.0709 21.1316 25.3173 21.2884C25.2817 21.224 25.2461 21.1596 25.2078 21.0952C25.2023 21.1848 25.1722 21.2716 25.1174 21.3444C25.0435 21.4396 25.0271 21.5684 25.1174 21.6608C25.1941 21.7392 25.3529 21.756 25.4269 21.6608C25.5583 21.49 25.6295 21.3136 25.646 21.0952C25.6514 21.0168 25.5994 20.9412 25.5364 20.902C25.3228 20.7648 25.0764 20.706 24.8354 20.636C24.6355 20.5772 24.4082 20.4988 24.326 20.286C24.1179 19.754 24.6793 19.306 25.0435 19.0484C25.2626 18.8944 25.52 18.746 25.6596 18.5052C25.813 18.242 25.761 17.92 25.5939 17.6764C25.4269 17.4328 25.1804 17.2984 24.9559 17.1192C24.7532 16.9568 24.5944 16.7356 24.5095 16.4864C24.3178 15.9152 24.5068 15.2684 24.9887 14.9128C25.0846 14.8428 25.1311 14.7168 25.0681 14.6076C25.0134 14.5152 24.8655 14.4592 24.7696 14.5292Z" fill="#B35229"/>
<path d="M29.1648 21.3499C28.5459 21.5067 28.4966 22.2935 28.7211 22.7863C28.8663 23.1055 29.1155 23.3659 29.2496 23.6879C29.3784 23.9931 29.3893 24.3403 29.2935 24.6539C29.1921 24.9871 28.9539 25.2531 28.858 25.5891C28.7622 25.9251 28.8307 26.2695 28.9813 26.5747C29.1401 26.8967 29.3866 27.1571 29.6276 27.4147C29.7207 27.5127 29.8192 27.6219 29.8631 27.7535C29.9096 27.8935 29.8412 28.0083 29.7535 28.1119C29.5427 28.3667 29.3428 28.5907 29.2825 28.9295C29.225 29.2572 29.3072 29.5848 29.5947 29.7696C29.8357 29.9208 30.0548 29.5344 29.8165 29.3832C29.6495 29.2768 29.6905 29.0416 29.748 28.8792C29.8384 28.6272 30.0575 28.4731 30.1944 28.2519C30.5915 27.6107 29.9124 27.1375 29.57 26.6923C29.392 26.4627 29.2277 26.1743 29.2469 25.8691C29.2661 25.5611 29.4824 25.3119 29.6084 25.0431C29.8932 24.4299 29.822 23.7495 29.4715 23.1839C29.3072 22.9207 29.0607 22.6435 29.0224 22.3215C28.9977 22.1171 29.0525 21.8399 29.2743 21.7839C29.5564 21.7111 29.4386 21.2799 29.1648 21.3499Z" fill="#B35229"/>
<path d="M32.5194 12.6281C32.1031 13.1097 31.6705 13.6641 31.6075 14.3277C31.5774 14.6413 31.6595 14.9465 31.8156 15.2153C31.9772 15.4925 32.2045 15.7221 32.3469 16.0105C32.4728 16.2681 32.4701 16.5005 32.314 16.7385C32.1771 16.9457 32.0018 17.1221 31.9169 17.3601C31.6978 17.9789 32.3688 18.2477 32.6235 18.6901C32.911 19.1857 32.9329 19.8269 32.6508 20.3309C32.5112 20.5801 32.8891 20.8069 33.0288 20.5577C33.2971 20.0789 33.3574 19.4965 33.2095 18.9673C33.1356 18.6985 33.0096 18.4465 32.8371 18.2281C32.7631 18.1357 32.6837 18.0545 32.5961 17.9761C32.5057 17.8949 32.3797 17.8081 32.3304 17.6905C32.2538 17.5029 32.4482 17.2985 32.5495 17.1641C32.7193 16.9401 32.8672 16.7133 32.8836 16.4221C32.9 16.1085 32.7549 15.8005 32.5851 15.5485C32.4208 15.3049 32.2072 15.0809 32.1004 14.8009C31.843 14.1149 32.4181 13.4233 32.8288 12.9473C33.0151 12.7317 32.7083 12.4125 32.5194 12.6281Z" fill="#B35229"/>
<path d="M36.2246 19.4291C35.8795 19.7791 35.5564 20.1655 35.3948 20.6415C35.2579 21.0475 35.2771 21.5179 35.4824 21.8987C35.5838 22.0863 35.7371 22.2459 35.9206 22.3495C36.1068 22.4531 36.3232 22.4895 36.5012 22.6043C36.8353 22.8199 36.6929 23.3071 36.5587 23.6067C36.3615 24.0407 36.0603 24.4579 36.0794 24.9591C36.0877 25.1971 36.1725 25.4099 36.3232 25.5919C36.4519 25.7431 36.6217 25.8523 36.7668 25.9839C36.8982 26.1043 36.9913 26.2303 36.9913 26.4151C36.9941 26.6027 36.9393 26.7819 36.901 26.9639C36.8106 27.3811 36.8133 27.8123 37.1967 28.0755C37.3775 28.1987 37.5993 28.2463 37.7663 28.3919C37.9005 28.5095 37.9991 28.6635 38.0566 28.8343C38.1716 29.1815 38.1442 29.5959 37.8978 29.8815C37.7116 30.0971 38.021 30.4135 38.2072 30.1979C38.7084 29.6183 38.6618 28.6803 38.136 28.1315C37.9936 27.9831 37.8238 27.8907 37.6376 27.8067C37.4815 27.7339 37.3145 27.6583 37.2844 27.4679C37.257 27.2915 37.3172 27.1039 37.3556 26.9359C37.3966 26.7455 37.4405 26.5439 37.4268 26.3451C37.4076 26.1239 37.3254 25.9335 37.1803 25.7711C37.0516 25.6283 36.89 25.5247 36.7476 25.3959C36.597 25.2587 36.5094 25.1075 36.5149 24.8975C36.5231 24.6595 36.6326 24.4271 36.7394 24.2199C36.9366 23.8307 37.1639 23.4303 37.142 22.9739C37.131 22.7611 37.0653 22.5595 36.9284 22.3971C36.7777 22.2179 36.5614 22.1339 36.3533 22.0555C36.1506 21.9799 35.9809 21.8875 35.8686 21.6915C35.7645 21.5067 35.7344 21.2911 35.7453 21.0811C35.7782 20.5491 36.1835 20.1039 36.534 19.7483C36.7339 19.5411 36.4245 19.2247 36.2246 19.4291Z" fill="#B35229"/>
<path d="M40.2364 13.2132C40.0447 13.7536 39.8667 14.3276 39.8777 14.91C39.8832 15.19 39.9379 15.4644 40.0557 15.7192C40.1789 15.988 40.4062 16.17 40.5486 16.422C40.7704 16.814 40.5705 17.304 40.4445 17.6932C40.3021 18.1384 40.146 18.634 40.3021 19.0988C40.4062 19.4096 40.6527 19.6448 40.7458 19.9612C40.7896 20.1152 40.806 20.2804 40.7841 20.44C40.7677 20.5548 40.7321 20.7732 40.6362 20.8488C40.6883 20.8264 40.7403 20.804 40.7923 20.7844C40.7814 20.7844 40.7704 20.7872 40.7595 20.7872C40.8115 20.8096 40.8635 20.832 40.9156 20.8516C40.9101 20.8488 40.9073 20.8432 40.9019 20.8404C40.9238 20.8936 40.9457 20.9468 40.9648 21C40.9648 20.9944 40.9648 20.9888 40.9648 20.9804C40.9539 21.0168 40.9457 21.056 40.9347 21.0924C40.9375 21.0868 40.9402 21.0812 40.9429 21.0756C40.9156 21.1036 40.8909 21.1288 40.8635 21.1568C40.869 21.154 40.8717 21.1512 40.8772 21.1484C40.8033 21.1484 40.7293 21.1484 40.6554 21.1484C40.6581 21.1512 40.6636 21.154 40.6664 21.1568C40.7622 21.2296 40.9101 21.1736 40.9648 21.0756C41.0306 20.9608 40.9813 20.8404 40.8854 20.7704C40.8827 20.7676 40.8772 20.7648 40.8745 20.762C40.8142 20.7172 40.7129 20.7228 40.6527 20.762C40.5185 20.8488 40.4719 21.042 40.5924 21.1652C40.7458 21.3192 40.9457 21.2072 41.036 21.0504C41.2031 20.7592 41.2551 20.398 41.2086 20.0676C41.162 19.7232 40.984 19.4684 40.8142 19.1772C40.6855 18.956 40.6472 18.7264 40.6883 18.4716C40.7704 17.934 41.047 17.4496 41.0771 16.9008C41.0936 16.6348 41.0306 16.3632 40.8854 16.142C40.7129 15.8816 40.4801 15.6856 40.3843 15.3776C40.1762 14.7084 40.4336 13.9664 40.6554 13.3392C40.7567 13.0592 40.3323 12.9416 40.2364 13.2132Z" fill="#B35229"/>
<path d="M42.4437 26.6251C42.608 26.8323 42.6025 27.1291 42.5368 27.3755C42.4546 27.6863 42.2657 27.9551 42.0822 28.2127C41.8932 28.4815 41.6742 28.7615 41.592 29.0891C41.5044 29.4391 41.644 29.7415 41.8029 30.0411C42.1288 30.6599 42.2328 31.3543 42.3205 32.0403C42.3588 32.3455 42.4081 32.6647 42.3588 32.9699C42.3341 33.1211 42.2848 33.2583 42.2054 33.3871C42.1151 33.5355 42.011 33.6699 41.9535 33.8351C41.8522 34.1207 41.9261 34.4287 42.0055 34.7087C42.0603 34.8991 42.2 35.2211 42.0548 35.4003C41.8768 35.6215 42.1835 35.9407 42.3643 35.7167C42.5505 35.4871 42.5751 35.2295 42.5204 34.9439C42.4711 34.6891 42.3533 34.4427 42.3424 34.1795C42.3287 33.8659 42.6025 33.6335 42.7093 33.3535C42.8353 33.0287 42.8271 32.6647 42.7915 32.3231C42.7175 31.6007 42.6272 30.8503 42.3506 30.1755C42.2876 30.0215 42.2136 29.8759 42.137 29.7303C42.0548 29.5763 41.9754 29.4111 42.0083 29.2291C42.0384 29.0723 42.1288 28.9295 42.2136 28.7979C42.3122 28.6411 42.4218 28.4927 42.5286 28.3387C42.9366 27.7479 43.257 26.9471 42.7504 26.3087C42.6765 26.2135 42.5176 26.2303 42.4409 26.3087C42.3533 26.4011 42.3697 26.5327 42.4437 26.6251Z" fill="#B35229"/>
<path d="M47.4851 22.2038C47.0415 22.5314 46.6608 23.0018 46.5376 23.5562C46.4774 23.8222 46.4774 24.1078 46.565 24.3682C46.6581 24.6342 46.8251 24.8526 47.0059 25.0626C47.1592 25.2418 47.3373 25.4266 47.403 25.659C47.4687 25.8858 47.4057 26.1154 47.329 26.331C47.1538 26.8126 46.8553 27.2914 46.9785 27.8262C47.0168 27.9886 47.1017 28.1342 47.1757 28.2826C47.2496 28.431 47.2797 28.585 47.2688 28.7502C47.2496 29.1114 47.0661 29.4558 46.8991 29.7666C46.7649 30.0186 47.1428 30.2454 47.277 29.9934C47.5645 29.453 47.8603 28.809 47.6138 28.193C47.5098 27.9354 47.3509 27.7338 47.392 27.4426C47.4221 27.2186 47.5235 27.003 47.6111 26.7958C47.8192 26.3058 47.989 25.799 47.7234 25.2922C47.4961 24.8582 46.9977 24.5614 46.9374 24.0434C46.8717 23.4722 47.2743 22.9094 47.7042 22.5902C47.8001 22.5202 47.8466 22.3942 47.7836 22.285C47.7289 22.187 47.581 22.131 47.4851 22.2038Z" fill="#B35229"/>
</g>
<defs>
<clipPath id="clip0">
<rect width="66" height="56" fill="white"/>
</clipPath>
</defs>
</svg>
