<svg width="16" height="11" viewBox="0 0 16 11" fill="none" xmlns="http://www.w3.org/2000/svg">
<path d="M15.4924 1.68863C15.4065 1.36164 15.2381 1.06345 15.004 0.823894C14.7699 0.584338 14.4784 0.411822 14.1586 0.323612C12.9815 6.56638e-08 8.263 0 8.263 0C8.263 0 3.54448 -6.56638e-08 2.36737 0.32189C2.04745 0.409814 1.75579 0.582235 1.52168 0.821835C1.28758 1.06144 1.11927 1.35978 1.03366 1.68691C0.71875 2.89185 0.71875 5.405 0.71875 5.405C0.71875 5.405 0.71875 7.91815 1.03366 9.12137C1.20711 9.7858 1.71904 10.3091 2.36737 10.4864C3.54448 10.81 8.263 10.81 8.263 10.81C8.263 10.81 12.9815 10.81 14.1586 10.4864C14.8087 10.3091 15.3189 9.7858 15.4924 9.12137C15.8073 7.91815 15.8073 5.405 15.8073 5.405C15.8073 5.405 15.8073 2.89185 15.4924 1.68863ZM6.76426 7.71159V3.09841L10.6711 5.38779L6.76426 7.71159Z" />
</svg>
