<svg width="24" height="24" viewBox="0 0 24 24" fill="none" xmlns="http://www.w3.org/2000/svg">
<path d="M17.5312 4.80012H23.375V7.20012H21.0375V22.8001C21.0375 23.1184 20.9143 23.4236 20.6952 23.6487C20.476 23.8737 20.1787 24.0001 19.8687 24.0001H3.50625C3.19627 24.0001 2.899 23.8737 2.67982 23.6487C2.46063 23.4236 2.3375 23.1184 2.3375 22.8001V7.20012H0V4.80012H5.84374V1.20012C5.84374 0.881862 5.96688 0.576638 6.18606 0.351594C6.40524 0.12655 6.70252 0.00012207 7.01249 0.00012207H16.3625C16.6725 0.00012207 16.9697 0.12655 17.1889 0.351594C17.4081 0.576638 17.5312 0.881862 17.5312 1.20012V4.80012ZM18.7 7.20012H4.67499V21.6001H18.7V7.20012ZM13.3401 14.4001L15.4064 16.5217L13.7538 18.2185L11.6875 16.0969L9.62114 18.2185L7.96853 16.5217L10.0349 14.4001L7.96853 12.2785L9.62114 10.5817L11.6875 12.7033L13.7538 10.5817L15.4064 12.2785L13.3401 14.4001ZM8.18124 2.40012V4.80012H15.1937V2.40012H8.18124Z"/>
</svg>
