<svg width="9" height="14" viewBox="0 0 9 14" fill="none" xmlns="http://www.w3.org/2000/svg">
<path d="M8.05288 0.0458636L6.17575 0.0429688C4.06687 0.0429688 2.70401 1.3869 2.70401 3.46699V5.04569H0.816644C0.653553 5.04569 0.521484 5.17277 0.521484 5.32953V7.61689C0.521484 7.77365 0.653704 7.90058 0.816644 7.90058H2.70401V13.6723C2.70401 13.8291 2.83608 13.956 2.99917 13.956H5.46165C5.62474 13.956 5.75681 13.8289 5.75681 13.6723V7.90058H7.96358C8.12667 7.90058 8.25874 7.77365 8.25874 7.61689L8.25964 5.32953C8.25964 5.25426 8.22847 5.18218 8.1732 5.12892C8.11793 5.07565 8.04264 5.04569 7.96433 5.04569H5.75681V3.70741C5.75681 3.06417 5.91628 2.73763 6.78806 2.73763L8.05258 2.7372C8.21552 2.7372 8.34759 2.61012 8.34759 2.4535V0.329558C8.34759 0.173092 8.21567 0.0461531 8.05288 0.0458636Z" />
</svg>
