<svg width="32" height="32" viewBox="0 0 32 32" fill="none" xmlns="http://www.w3.org/2000/svg">
<path fill-rule="evenodd" clip-rule="evenodd" d="M20.4573 20.324C21.2002 19.5811 21.7896 18.6992 22.1917 17.7286C22.5938 16.758 22.8008 15.7177 22.8009 14.6671C22.8009 13.6165 22.594 12.5762 22.1921 11.6055C21.7901 10.6349 21.2008 9.7529 20.458 9.00997C19.7151 8.26704 18.8332 7.67769 17.8626 7.27559C16.892 6.87348 15.8517 6.66649 14.8011 6.66643C12.6793 6.6663 10.6444 7.50906 9.14398 9.0093C7.64356 10.5095 6.80057 12.5444 6.80044 14.6662C6.80032 16.7879 7.64307 18.8229 9.14332 20.3233C10.6436 21.8237 12.6784 22.6667 14.8002 22.6668C16.922 22.667 18.9569 21.8242 20.4573 20.324ZM22.3426 7.12397C24.1803 8.96155 25.2841 11.4067 25.4466 14.0005C25.6091 16.5942 24.8192 19.158 23.2253 21.2106C23.2467 21.228 23.2653 21.2466 23.2866 21.2666L28.9426 26.9226C29.1928 27.1726 29.3335 27.5118 29.3336 27.8655C29.3337 28.2192 29.1933 28.5584 28.9433 28.8086C28.6933 29.0588 28.3541 29.1994 28.0005 29.1996C27.6468 29.1997 27.3075 29.0593 27.0573 28.8093L21.4 23.152C21.3807 23.1326 21.362 23.1125 21.344 23.092C19.2002 24.7524 16.5047 25.5341 13.8052 25.2784C11.1057 25.0226 8.60495 23.7485 6.81121 21.715C5.01748 19.6815 4.0654 17.0412 4.14851 14.331C4.23162 11.6207 5.34368 9.04373 7.25865 7.12397C9.259 5.12387 11.9719 4.00024 14.8006 4.00024C17.6294 4.00024 20.3423 5.12387 22.3426 7.12397ZM13.4667 9.3333H16.1333V13.3333H20.1333V16H16.1333V20H13.4667V16H9.46665V13.3333H13.4667V9.3333Z" />
</svg>
