<svg width="14" height="14" viewBox="0 0 14 14" fill="none" xmlns="http://www.w3.org/2000/svg">
<path d="M9.90839 12.9153C10.6994 12.9153 11.446 12.6125 12.0107 12.0629C12.5754 11.5133 12.8864 10.7866 12.8864 10.0167V3.98277C12.8864 3.21288 12.5754 2.48619 12.0107 1.93655C11.446 1.3869 10.6994 1.08421 9.90839 1.08421H4.09053C3.29954 1.08421 2.55293 1.3869 1.98821 1.93655C1.4235 2.48619 1.1125 3.21288 1.1125 3.98277V10.0167C1.1125 10.7866 1.4235 11.5133 1.98821 12.0629C2.55293 12.6125 3.29954 12.9153 4.09053 12.9153H9.90839ZM9.90839 13.9563H4.09053C1.86436 13.9563 0.0429688 12.1835 0.0429688 10.0167V3.98277C0.0429688 1.816 1.86436 0.0432129 4.09053 0.0432129H9.90839C12.1346 0.0432129 13.956 1.816 13.956 3.98277V10.0167C13.956 12.1835 12.1346 13.9563 9.90839 13.9563Z" />
<path d="M7.00251 4.50721C5.61698 4.50721 4.49381 5.60043 4.49381 6.94897C4.49381 8.29754 5.61698 9.39076 7.00251 9.39076C8.38805 9.39076 9.51122 8.29754 9.51122 6.94897C9.51122 5.60043 8.38805 4.50721 7.00251 4.50721ZM10.8522 6.94604C10.8522 9.00547 9.13687 10.675 7.02095 10.675C4.90506 10.675 3.18976 9.00547 3.18976 6.94604C3.18976 4.88658 4.90506 3.21706 7.02095 3.21706C9.13687 3.21706 10.8522 4.88658 10.8522 6.94604Z" />
<path d="M11.8208 3.15907C11.8208 3.6467 11.4147 4.04204 10.9137 4.04204C10.4127 4.04204 10.0065 3.6467 10.0065 3.15907C10.0065 2.67143 10.4127 2.2761 10.9137 2.2761C11.4147 2.2761 11.8208 2.67143 11.8208 3.15907Z" />
</svg>
