<svg width="21" height="24" viewBox="0 0 21 24" fill="none" xmlns="http://www.w3.org/2000/svg">
<path d="M10.212 0C7.67723 0 5.59662 2.08062 5.59662 4.61538V5.53846H1.03846L0.981231 6.40431L0.058154 23.0197L0 24H20.4231L20.3658 23.0188L19.4428 6.40338L19.3846 5.53846H14.8274V4.61538C14.8274 2.08062 12.7468 0 10.212 0ZM10.212 1.84615C10.9464 1.84615 11.6508 2.13791 12.1701 2.65724C12.6895 3.17657 12.9812 3.88094 12.9812 4.61538V5.53846H7.44277V4.61538C7.44277 3.88094 7.73453 3.17657 8.25386 2.65724C8.77319 2.13791 9.47755 1.84615 10.212 1.84615ZM2.76923 7.38462H5.59662V10.1538H7.44277V7.38462H12.9812V10.1538H14.8274V7.38462H17.6548L18.4625 22.1538H1.96246L2.76923 7.38462Z"/>
</svg>
