<svg width="49" height="62" viewBox="0 0 49 62" fill="none" xmlns="http://www.w3.org/2000/svg">
<path d="M37.4319 8.60883C34.2587 6.54715 30.7498 5.72247 27.012 5.6003C26.8595 5.6003 26.7069 5.6003 26.5543 5.6003C26.5086 5.6003 26.4475 5.64612 26.2492 5.72247C26.7679 5.79883 27.1341 5.87519 27.5155 5.90574C31.4821 6.27226 35.0672 7.57035 38.2405 10.0138C42.3749 13.2209 45.0905 17.3748 46.7229 22.2923C47.2873 23.9722 47.6535 25.7132 48.0501 27.4389C47.806 25.1939 47.3331 22.9948 46.5703 20.7651C46.8907 21.04 46.8907 21.04 46.9517 21.2233C47.3484 22.4603 47.6993 23.6973 47.9281 24.9801C47.9739 25.2092 48.0196 25.423 48.1722 25.6063C48.34 25.8048 48.401 26.0644 48.34 26.3088C48.1569 27.0723 48.3705 27.8054 48.4468 28.569C48.5536 29.6227 48.6146 30.6917 48.6909 31.7455C48.7367 32.2342 48.5841 32.7229 48.9045 33.181C49.2249 33.6545 48.6146 34.021 48.6756 34.5249C48.935 36.8615 48.6756 39.1981 48.7367 41.5347C48.7519 42.1913 48.6909 42.8633 48.7367 43.5353C48.7519 43.8254 48.6299 43.9629 48.34 43.9629C48.1569 43.9629 47.9586 43.9629 47.7755 43.9629C47.3179 43.9781 46.8754 44.0239 46.555 44.4363C46.433 44.589 46.2347 44.7264 46.0363 44.7875C45.2278 45.0624 44.9684 45.7344 44.6786 46.4369C43.7327 48.7276 42.8021 51.0184 41.2459 53.0037C39.4915 55.2487 37.2183 56.7453 34.6248 57.8143C32.4279 58.7153 30.1395 59.2651 27.7748 59.4942C27.3477 59.54 27.1951 59.6775 27.1646 60.1203C27.073 61.4337 25.6237 62.3195 24.3727 61.8766C24.1897 61.8155 24.0066 61.7544 23.8235 61.7086C23.3353 61.5712 23.0607 61.2657 22.9692 60.7618C22.7403 59.6469 22.7098 59.6164 21.6724 59.54C19.0941 59.3568 16.6684 58.6237 14.2885 57.6769C11.4356 56.5468 9.22345 54.5462 7.25541 52.2401C5.53148 50.2395 4.41779 47.8724 3.62447 45.3526C3.38037 44.5737 3.18204 44.3905 2.38873 44.3141C2.12938 44.2836 1.85477 44.2225 1.59541 44.2378C1.16824 44.253 1.03094 44.085 1.03094 43.6727C1.0462 41.3819 1.03094 39.0912 1.03094 36.8157C1.03094 35.7314 1.0462 34.6471 1.01568 33.5628C0.939403 31.4401 1.12248 29.3326 1.33606 27.2251C1.35132 27.1182 1.36657 26.996 1.33606 26.8891C1.24452 26.3851 1.3208 25.9728 1.53439 25.4841C1.83951 24.8121 1.88528 24.0027 2.08361 23.2697C2.34296 22.2923 2.63283 21.3454 3.07525 20.4291C2.67859 22.0021 2.09886 23.5446 1.90053 25.1634C4.81444 14.015 11.3746 6.8984 23.0454 5.50867C21.3673 5.06579 16.7294 6.11954 13.7392 7.82997C10.8253 9.49459 8.3386 11.6479 6.34005 14.5343C6.41633 14.0761 6.61466 13.7096 7.02657 13.2362C7.74361 12.3962 8.49116 11.5715 9.29973 10.8232C9.57434 10.5636 9.87946 10.3345 10.032 9.95274C10.0625 9.86111 10.1693 9.76948 10.2609 9.70839C12.2747 8.56301 14.1206 7.14274 16.3328 6.34861C16.8362 6.16535 17.3397 6.01264 17.8584 5.85992C18.2703 5.73775 18.6975 5.66139 19.0178 5.31014C19.2009 5.09633 19.5671 5.01998 19.8112 5.18796C20.1773 5.41704 20.5435 5.3865 20.9096 5.34068C21.7944 5.24905 22.6946 5.23378 23.5947 5.23378C24.1134 5.23378 24.4032 5.08106 24.4338 4.45492C24.4795 3.12628 24.6321 1.79764 24.7541 0.469003C24.7694 0.316286 24.7541 0.163569 24.9677 0.026123C25.2423 0.606448 25.1813 1.21732 25.2271 1.79764C25.3033 2.71395 25.2271 3.63025 25.3644 4.53128C25.4559 5.17269 25.5627 5.34068 26.2035 5.32541C27.3477 5.27959 28.4919 5.3865 29.6208 5.56976C29.6513 5.56976 29.6971 5.58503 29.7276 5.56976C30.9023 5.24905 31.8177 6.01264 32.8704 6.27226C33.9383 6.53188 34.9452 6.91367 35.8758 7.47872C35.9826 7.53981 36.1199 7.64671 36.2419 7.64671C36.9132 7.61617 37.2946 7.96742 37.5235 8.56301C37.4777 8.54774 37.4472 8.57829 37.4319 8.60883ZM41.2459 42.6953C40.5899 42.1913 39.8271 41.947 39.0491 41.7485C39.7814 42.0692 40.4984 42.3899 41.2307 42.7258C42.5732 43.4589 41.9935 44.5126 41.5816 45.6275C41.9019 45.2915 41.9935 44.9861 42.1155 44.7264C42.741 43.3214 42.6953 43.1993 41.2459 42.6953ZM28.324 39.7173C27.6375 40.206 26.9663 40.7253 26.3713 41.3209C25.7 41.6874 25.2423 42.2524 24.7999 42.8633C24.4643 43.3367 24.1134 43.3367 23.7472 42.8786C23.5642 42.6495 23.4116 42.4204 23.2133 42.2066C21.413 40.2976 19.2314 38.8468 17.2329 37.1669C17.1261 37.0753 16.9735 36.9531 16.9125 37.1364C16.7905 37.5487 16.0582 37.7778 16.5921 38.3887C16.821 38.6636 16.6684 39.0301 16.348 39.2134C15.9819 39.4272 15.5852 39.4882 15.2343 39.1523C14.975 38.8926 14.9597 38.5872 15.1581 38.2665C15.2954 38.0374 15.4937 37.9153 15.753 37.8542C16.165 37.7473 16.2412 37.3502 16.2107 37.0295C16.1955 36.7241 15.8446 36.831 15.6463 36.831C15.2801 36.8157 14.9292 36.8462 14.5631 36.8615C14.2885 36.8615 14.1206 36.9531 14.1664 37.2586C14.1817 37.3808 14.258 37.564 14.0596 37.5793C13.8918 37.5793 13.7087 37.5182 13.6782 37.3044C13.663 37.1822 13.6782 37.0448 13.6782 36.9073C12.7476 37.0753 11.8475 37.2586 10.9779 37.6404C10.7643 37.732 10.3371 37.7625 10.3829 37.9763C10.4744 38.4345 10.1388 38.969 10.5507 39.3203C10.8711 39.5951 10.9932 39.9159 11.0999 40.2824C11.161 40.4504 11.161 40.6947 11.4356 40.6489C11.8017 40.5725 12.1984 40.5878 12.5188 40.3435C12.595 40.2824 12.473 40.1755 12.4425 40.0991C12.3204 39.7326 12.2136 39.3661 12.1068 39.0148C12.0763 38.9079 12.0153 38.7705 12.1221 38.6941C12.2747 38.5872 12.3662 38.7552 12.4577 38.8163C12.8086 39.0301 12.7629 39.4119 12.8086 39.7326C12.8696 40.1907 13.0527 40.4198 13.5409 40.3893C14.4715 40.3129 15.3716 40.4656 16.1802 40.9391C16.5159 41.1376 16.7447 41.0307 16.9125 40.71C17.2787 40.0228 17.6753 39.3355 18.0567 38.6636C18.133 38.5414 18.2093 38.2971 18.3618 38.4192C18.4839 38.5109 18.6822 38.7094 18.5297 38.9537C18.2398 39.4272 18.0262 39.9769 17.6295 40.3282C17.3092 40.6184 17.3092 40.9849 17.1413 41.3056C17.0346 41.5041 17.8736 42.3288 18.133 42.2982C18.255 42.283 18.3618 42.1913 18.3771 42.0844C18.5907 41.2598 19.2467 40.7253 19.7349 40.0838C19.8264 39.9617 19.918 39.7479 20.1315 39.8548C20.2231 39.9159 20.3146 40.0686 20.3146 40.1907C20.3146 40.3893 20.1468 40.4962 19.9637 40.4962C19.6586 40.4809 19.5518 40.6336 19.5671 40.9085C19.5823 41.1529 19.4298 41.2903 19.2925 41.4583C19.0484 41.7485 18.8043 42.0386 18.5602 42.3288C18.4381 42.4662 18.3161 42.5884 18.4991 42.7717C18.8043 43.0771 19.0026 43.4894 19.384 43.7338C19.4145 43.9476 19.5366 44.1156 19.6433 44.2988C19.979 44.8486 20.3604 45.3831 20.5435 46.0093C21.0927 47.8113 21.169 49.6745 21.23 51.5376C21.291 53.1717 21.0622 53.4008 19.3992 53.4771C19.1246 53.4924 18.9873 53.584 18.9111 53.8284C18.4229 55.2181 17.9804 56.6078 17.6143 58.0281C17.5075 58.4099 17.6295 58.5474 17.9804 58.6237C18.7585 58.7917 19.5366 58.975 20.3299 59.0819C21.2452 59.1888 21.2452 59.2193 21.413 58.3335C21.4588 58.1197 21.4893 57.8449 21.7487 57.8754C22.0233 57.9059 21.8555 58.1656 21.8707 58.3488C21.9012 58.8222 21.8402 59.3568 22.5878 59.3568C23.0149 59.3568 23.1065 59.7538 23.1675 60.0898C23.3353 60.9603 24.5558 61.7544 25.3644 61.4032C25.9746 61.1435 26.7222 60.9145 26.829 60.044C26.9205 59.3262 27.0425 59.2193 27.7748 59.1888C28.8885 59.143 29.9564 58.8986 31.0244 58.639C31.421 58.5474 31.4668 58.3488 31.36 58.0281C30.9023 56.5926 30.4752 55.157 30.109 53.6909C30.0175 53.3092 30.0632 53.0953 30.3684 52.8968C30.6277 53.0495 30.6582 53.3244 30.7345 53.584C30.9939 54.424 31.0701 55.2945 31.3753 56.1191C31.6041 56.73 31.8024 57.3409 32.0465 57.9365C32.1686 58.2419 32.3211 58.3183 32.611 58.2114C33.1755 58.0128 33.7552 57.8143 34.3502 57.5852C33.6789 56.6995 33.7857 55.5846 33.2212 54.7141C33.0992 54.5156 33.267 54.3324 33.4501 54.256C33.6789 54.1644 33.7247 54.4087 33.7705 54.5614C34.0451 55.3097 34.3197 56.0581 34.5485 56.8369C34.6858 57.3103 34.8842 57.3867 35.3266 57.1882C36.6844 56.562 37.9201 55.7526 39.0643 54.7905C39.2626 54.6225 39.3084 54.5003 39.1406 54.2713C38.4083 53.2481 37.7218 52.1943 36.9742 51.1864C36.7607 50.8962 36.7149 50.6671 36.8369 50.3617C37.081 50.4381 37.3251 50.5144 37.2031 50.8657C37.1421 51.0642 37.2794 51.2017 37.4319 51.2627C38.149 51.5682 38.3778 51.8889 38.5304 52.7441C38.5456 52.8052 38.6066 52.9121 38.6524 52.9121C39.1253 52.9426 39.2321 53.3397 39.4457 53.6451C39.5525 53.8131 39.7203 54.1338 39.9797 53.92C40.4221 53.5535 40.7425 53.0801 41.0934 52.6219C41.307 52.347 40.834 52.2096 41.0018 51.9042C41.4595 52.3318 41.6426 51.95 41.8409 51.6293C42.2834 50.8962 42.6953 50.1479 43.0614 49.369C43.6869 48.0251 43.7022 48.0251 42.5275 47.0936C42.4969 47.063 42.4664 47.0477 42.4359 47.0172C41.5511 46.1009 41.49 46.4827 40.8645 47.1394C40.8188 47.2005 40.773 47.2616 40.7272 47.3226C40.5594 47.4906 40.5747 47.6433 40.7577 47.8113C40.9866 48.0099 41.2002 48.2389 41.429 48.4375C41.6426 48.6207 41.4595 48.7887 41.3985 48.9414C41.3527 49.1094 41.2154 49.0636 41.1391 48.972C40.834 48.6207 40.2848 48.468 40.2695 47.8571C39.6898 48.3153 39.1559 48.7429 38.6219 49.1705C38.0727 49.6134 37.4014 49.873 36.8827 50.3617C35.5097 51.0184 34.2129 51.8278 32.7636 52.3012C31.955 52.4998 31.1617 52.683 30.3531 52.8815C29.4988 52.9274 28.6444 52.9732 27.7901 53.0343C27.2409 53.0648 26.9052 52.8663 26.8595 52.2859C26.8137 51.7514 26.6916 51.2169 26.7222 50.6977C26.8747 48.2389 27.1341 45.8107 29.0106 43.9323C29.0563 43.8865 29.0868 43.8407 29.1326 43.7949C29.392 43.5505 29.6513 43.2909 29.9107 43.0466C30.643 42.3899 31.5126 41.947 32.3211 41.4125C33.7094 41.0612 33.7552 40.9849 33.3433 40.0228C33.267 39.8242 33.0992 39.7326 32.9771 39.6104C32.7331 39.3661 32.55 39.0454 32.7788 38.7552C33.1145 38.3429 32.9771 37.9458 32.8856 37.5182C32.7941 37.1364 32.6415 37.06 32.2906 37.2738C31.421 37.7778 30.5209 38.236 29.6513 38.7399C29.1631 39.0454 28.6444 39.2592 28.324 39.7173ZM15.6157 52.7746C15.1123 52.4692 14.5173 52.3928 13.9833 52.1332C13.7545 52.0263 13.6172 52.179 13.5104 52.3318C12.8544 53.355 12.0611 54.2865 11.4661 55.3556C11.3593 55.5541 11.3288 55.6915 11.5424 55.829C13.0832 56.9133 14.7919 57.6463 16.5921 58.1656C16.7447 58.2114 16.882 58.2419 16.943 58.0281C17.1261 57.2951 17.477 56.6078 17.6753 55.8748C17.9042 55.0349 18.133 54.1796 18.7127 53.4008C17.599 53.4466 16.6379 52.9579 15.6157 52.7746ZM45.182 30.2794C45.182 30.2489 45.182 30.2183 45.182 30.1878C45.9448 30.1878 46.7076 30.1878 47.4704 30.1878C47.8671 30.1878 48.0196 30.0961 47.9128 29.6074C47.623 28.4163 47.4399 27.2098 47.1805 26.0186C46.6618 23.6057 46.0974 21.2233 44.9379 19.0089C44.2819 17.7566 43.5954 16.5196 42.7715 15.3742C38.8965 9.98328 33.7247 6.86785 27.0578 6.39443C26.3255 6.34862 26.295 6.36389 26.295 7.1122C26.2797 11.4646 26.2645 15.8018 26.2645 20.1543C26.2645 23.2697 26.2645 26.4004 26.2492 29.5158C26.2492 29.974 26.3713 30.1572 26.8595 30.1572C30.6887 30.203 34.518 30.142 38.3473 30.2336C40.6204 30.3252 42.8936 30.2794 45.182 30.2794ZM8.3386 29.8823C11.283 29.8823 13.4189 29.9129 15.5547 29.9282C17.9804 29.9434 20.3909 29.9434 22.8166 30.0656C23.2438 30.0809 23.3811 29.9434 23.3811 29.5158C23.3811 26.7822 23.4421 24.0638 23.4421 21.3302C23.4421 18.5049 23.4268 15.6796 23.4268 12.8544C23.4268 10.8538 23.4726 8.85318 23.4879 6.85258C23.4879 6.54715 23.5031 6.27226 23.0454 6.31807C21.0622 6.50133 19.1246 6.77622 17.2329 7.44818C11.817 9.37242 7.89617 12.9765 5.18059 17.9551C3.25833 21.4829 2.29719 25.3161 1.70221 29.2715C1.65644 29.6227 1.76323 29.7754 2.11412 29.7907C2.34296 29.7907 2.5718 29.8365 2.80064 29.8365C4.92124 29.8365 7.02657 29.974 8.3386 29.8823ZM1.29029 42.3441C1.29029 42.6037 1.33606 42.8786 1.27504 43.1382C1.15299 43.7643 1.39708 43.9781 2.02258 43.9781C2.61757 43.9781 2.61757 44.0239 2.40399 43.4283C1.93105 42.1303 2.69385 40.8169 4.05164 40.5878C4.4483 40.5267 4.81444 40.3893 5.16533 40.1907C6.55364 39.4119 7.92668 38.5719 9.40652 37.9458C11.5424 37.0295 13.724 36.3575 16.0887 36.495C16.5159 36.5255 16.943 36.5866 17.2634 36.8462C19.5518 38.7247 22.0691 40.3587 24.0066 42.6648C24.2507 42.9549 24.4337 42.9091 24.6321 42.6189C24.8762 42.2372 25.1966 41.8859 25.5322 41.5957C27.6223 39.7479 29.8649 38.1291 32.3974 36.9073C32.9771 36.6324 33.5569 36.5561 34.1671 36.6935C37.615 37.4724 40.8493 38.7857 43.8242 40.71C44.2666 41.0001 44.7396 41.1834 45.2583 41.1834C46.6771 41.214 47.3789 42.0692 47.1348 43.4589C47.1195 43.5658 47.0127 43.7338 47.1653 43.7491C47.5467 43.7643 47.9434 43.7643 48.2942 43.6727C48.5536 43.5963 48.4468 43.2756 48.4468 43.0618C48.4621 40.1907 48.4621 37.3044 48.4926 34.4333C48.4926 34.0515 48.3705 33.9141 48.0196 33.9141C47.2568 33.9141 46.494 33.8835 45.7312 33.8835C40.0712 33.8072 34.4112 33.7155 28.7665 33.6392C25.7305 33.5934 22.7098 33.5323 19.6739 33.517C13.7087 33.4865 7.74361 33.5934 1.79374 33.3796C1.4276 33.3643 1.25978 33.517 1.25978 33.8683C1.25978 34.0821 1.24452 34.2806 1.24452 34.4944C1.24452 37.0753 1.19876 39.702 1.29029 42.3441ZM20.8333 50.5755C20.7723 50.0716 20.696 49.476 20.6502 48.8651C20.4061 45.994 19.0331 43.7491 16.7752 42.0234C15.9514 41.3972 15.0055 41.0612 13.9528 41.1376C11.6187 41.2903 9.43703 41.9623 7.36221 43.0466C6.67568 43.4131 6.55364 43.7185 6.88927 44.4516C7.65207 46.1162 8.49116 47.7655 9.89472 49.0025C12.7781 51.5376 16.1192 52.8968 20.04 52.5608C20.4367 52.5303 20.6045 52.3318 20.7418 51.9958C20.9249 51.5529 20.757 51.11 20.8333 50.5755ZM27.0883 50.4839C27.0425 50.9268 27.1951 51.3544 27.1951 51.7973C27.1951 52.1638 27.3629 52.3776 27.7138 52.4387C28.3546 52.5608 28.9953 52.683 29.6361 52.5914C31.6651 52.3165 33.6179 51.7514 35.4334 50.7435C36.8674 49.9494 38.3473 49.2316 39.4762 47.9946C40.4526 46.9256 41.2459 45.7496 41.6273 44.3294C41.7646 43.8101 41.5968 43.4742 41.1391 43.184C39.7966 42.3288 38.3015 41.8706 36.7607 41.5805C34.4112 41.1529 32.2906 41.7332 30.4446 43.2298C29.2242 44.2225 28.0647 45.2915 27.6223 46.8798C27.2866 48.0557 27.2104 49.2774 27.0883 50.4839ZM18.6517 32.4938C18.6517 32.5243 18.6517 32.5702 18.6517 32.6007C22.5115 32.6618 26.3865 32.7534 30.2463 32.784C36.1657 32.8298 42.1003 32.8451 48.0196 32.8909C48.3095 32.8909 48.4621 32.8145 48.4468 32.5091C48.4315 31.9746 48.4163 31.4401 48.401 30.9055C48.3858 30.6612 48.279 30.5237 48.0044 30.5237C47.2416 30.5237 46.4788 30.4168 45.716 30.4779C44.1293 30.6307 42.558 30.4932 40.9866 30.5085C38.927 30.539 36.8827 30.5238 34.8231 30.4779C31.7567 30.4168 28.6902 30.4627 25.6237 30.4168C23.1522 30.3863 20.6808 30.2489 18.194 30.2183C15.2038 30.1725 12.2136 30.1878 9.22345 30.1878C6.8435 30.203 4.46355 30.1878 2.08361 30.0809C1.33606 30.0503 1.22927 30.1878 1.27504 30.9361C1.35132 32.2342 1.35132 32.2342 2.54129 32.2495C5.31789 32.28 8.0945 32.3716 10.8711 32.448C13.4646 32.5549 16.0582 32.4938 18.6517 32.4938ZM23.7777 17.7566C23.7625 17.7566 23.7472 17.7566 23.732 17.7566C23.732 19.2227 23.7472 20.6888 23.732 22.1548C23.7167 24.5525 23.6862 26.9654 23.6404 29.3631C23.6252 29.7907 23.7472 30.0045 24.2202 29.974C24.6016 29.9434 24.983 29.974 25.3644 29.9892C25.7763 30.0198 25.9441 29.8518 25.9594 29.4242C26.0051 28.1108 25.9746 26.7974 25.9594 25.4841C25.9441 23.3002 26.0051 21.1011 26.0204 18.9172C26.0356 14.9161 26.0356 10.8996 26.0356 6.8984C26.0356 5.37123 26.0356 5.40177 24.4948 5.44758C23.9456 5.46286 23.793 5.64612 23.793 6.1959C23.7777 10.0596 23.7777 13.9081 23.7777 17.7566ZM13.4341 52.0721C13.2968 51.7514 13.0985 51.7209 12.9307 51.6293C11.3898 50.6671 9.84895 49.7203 8.73525 48.2389C7.7131 46.8798 6.93504 45.3679 6.00442 43.9476C5.8366 43.688 5.80609 43.4131 5.94339 43.1382C6.09595 42.848 5.98916 42.6037 5.74506 42.4357C5.27213 42.115 5.05854 41.6416 4.84496 41.1529C4.79919 41.046 4.81444 40.878 4.67714 40.8932C4.18895 40.9543 3.65498 40.8322 3.21256 41.2292C2.4345 41.9317 2.25142 43.0924 2.98372 43.9476C3.45665 44.5126 3.91434 45.0472 4.05164 45.8413C4.47881 45.093 5.56199 44.589 6.11121 44.8334C5.74506 45.0777 5.39418 45.3373 5.02803 45.5664C4.12792 46.1314 4.12792 46.1314 4.53984 47.1088C4.55509 47.1394 4.57035 47.1852 4.5856 47.2157C4.72291 47.7044 5.01277 47.6739 5.27213 47.3532C5.66878 46.8645 6.40108 46.895 6.75197 46.3452C6.8435 46.1925 7.05709 46.1773 7.16388 46.3911C7.25542 46.5743 7.17913 46.7423 7.02657 46.7576C6.58415 46.8187 6.37056 47.1699 6.0807 47.4143C5.74506 47.7044 5.08905 47.7655 5.0738 48.2237C5.0738 48.6513 5.43994 49.0789 5.65353 49.5065C5.77558 49.7356 5.89762 49.9799 6.20275 49.6898C6.27903 49.6287 6.38582 49.5829 6.4621 49.6745C6.53838 49.7661 6.4621 49.8577 6.38582 49.9188C6.05019 50.1632 6.17223 50.3923 6.37056 50.6366C6.52312 50.8351 6.67568 51.0337 6.79773 51.2475C7.04183 51.6445 7.30118 51.5834 7.57579 51.2933C7.77412 51.0948 7.94194 50.8199 8.29283 50.774C8.20129 51.2627 8.12501 51.6904 7.68258 51.9347C7.53002 52.0111 7.54528 52.1485 7.65207 52.2707C7.95719 52.6067 8.26232 52.9426 8.58269 53.2786C8.65897 53.355 8.76577 53.4466 8.88781 53.3702C9.19294 53.187 9.49806 52.8663 9.62011 52.6372C9.83369 52.2249 10.1388 51.9652 10.4439 51.6598C10.5355 51.5529 10.6423 51.4002 10.8253 51.5224C10.9169 51.5834 10.9779 51.7056 10.9626 51.8278C10.9321 51.9958 10.8406 52.118 10.6575 52.0874C10.4592 52.0569 10.3677 52.118 10.3066 52.347C10.1693 52.8968 9.78792 53.3092 9.29973 53.584C9.1014 53.7062 9.07089 53.7826 9.20819 53.9048C9.75741 54.4698 10.3066 55.0349 11.0542 55.4472C10.7643 55.157 10.9626 54.989 11.1152 54.7905C11.3746 54.4087 11.9085 54.1796 12.0153 53.7978C12.1679 53.2633 12.5645 52.8968 12.7629 52.4234C12.9002 52.1332 13.068 51.9958 13.4341 52.0721ZM33.0839 37.0906C33.4348 37.228 33.4653 37.4877 33.4959 37.7625C33.5264 37.9916 33.5264 38.236 33.74 38.3887C34.2587 38.7552 34.396 39.1217 33.9383 39.6715C33.6484 40.0075 33.8467 40.4656 33.984 40.8169C34.0908 41.1223 34.4265 40.8322 34.6553 40.8627C35.0062 40.9238 35.2961 40.6184 35.6317 40.6642C36.6233 40.8016 37.6302 40.8627 38.6066 41.1223C38.8507 41.1834 39.0033 41.0918 38.9575 40.8474C38.8355 40.2518 39.1559 39.7326 39.1711 39.1675C39.1711 39.0606 39.1864 38.8927 39.3389 38.9232C39.4305 38.9385 39.5067 39.0606 39.5678 39.1523C39.7051 39.305 39.6135 39.473 39.5678 39.641C39.4457 40.0686 39.3542 40.4962 39.2932 40.9238C39.2474 41.2445 39.3389 41.3514 39.6288 41.4583C40.5289 41.779 40.5289 41.7943 40.7883 40.878C40.8493 40.6336 40.9408 40.4046 41.0171 40.1755C41.0781 40.0075 41.0324 39.7326 41.3375 39.8242C41.5663 39.8853 41.5663 40.0991 41.5205 40.2976C41.3985 40.7558 41.3222 41.2292 41.1697 41.6721C41.0781 41.947 41.1391 42.115 41.3832 42.2219C41.5511 42.3135 41.7189 42.3899 41.8867 42.4815C42.3901 42.7259 42.6953 42.512 42.68 41.9317C42.68 41.7637 42.741 41.5957 42.7868 41.4278C42.8478 41.2445 42.9699 41.1223 43.1682 41.1681C43.4123 41.2292 43.3665 41.4278 43.3055 41.5805C43.1987 41.9623 43.0614 42.3441 42.9394 42.7258C42.8936 42.8328 42.7105 42.8938 42.8478 43.0618C43.1072 43.3673 42.9699 43.6727 42.8631 43.9781C42.6648 44.6195 42.4359 45.2457 42.0545 45.7955C41.902 46.0245 41.8867 46.1773 42.2223 46.2842C42.8021 46.4674 43.2445 46.8339 43.5496 47.3685C43.7327 47.6739 43.87 47.6892 44.0073 47.3532C44.1751 46.9714 44.3582 46.5896 44.5107 46.2078C44.8006 45.49 44.8006 45.49 44.1141 45.1388C43.992 45.0777 43.87 45.0166 43.7632 44.9403C43.5343 44.7875 43.1072 44.6654 43.2903 44.3447C43.4733 44.0392 43.7479 44.4057 43.9615 44.4974C44.4802 44.7112 44.8616 45.1999 45.5939 44.7875C46.5398 44.253 47.0127 43.5963 46.8297 42.6037C46.6924 41.8554 46.0974 41.4888 45.0294 41.4736C44.6633 41.4736 44.2971 41.4888 43.992 41.2598C42.2223 39.9006 40.178 39.0606 38.1337 38.1902C37.8286 38.068 37.6913 38.0833 37.6608 38.4498C37.6302 38.7858 37.554 39.137 37.3709 39.4882C37.1268 39.0606 37.0353 38.6788 37.1573 38.2818C37.2488 37.9458 37.0963 37.8542 36.8217 37.7625C35.8605 37.4266 34.8842 37.1975 33.8925 36.999C33.6484 36.9226 33.3891 36.8462 33.0839 37.0906ZM7.59105 41.9775C7.95719 41.8248 8.26232 41.6721 8.58269 41.5652C8.87256 41.4583 8.91833 41.3209 8.78102 41.046C8.53692 40.5267 8.32334 39.9922 8.07924 39.4882C7.95719 39.2592 8.03347 39.1065 8.20129 38.9996C8.44539 38.8316 8.4759 39.0912 8.55218 39.2286C8.72 39.5951 8.8573 39.9769 9.02512 40.3282C9.46754 41.275 9.46755 41.2598 10.4439 40.9391C10.7796 40.8322 10.7796 40.6947 10.6575 40.4198C10.3829 39.7479 10.093 39.0912 9.87946 38.404C9.80318 38.1443 9.77267 38.1596 9.57434 38.2207C8.67423 38.5414 7.83515 38.9995 7.01132 39.473C6.82825 39.5799 6.7062 39.6868 6.81299 39.9311C6.87401 40.0533 7.02657 40.2366 6.82825 40.3282C6.72145 40.374 6.53838 40.2976 6.40108 40.2366C6.09595 40.0838 5.31789 40.2824 5.13482 40.5725C5.0738 40.6794 5.08905 40.7558 5.15008 40.8322C5.54674 41.3361 5.62302 41.9928 6.15698 42.451C6.61466 42.848 6.73671 42.3288 7.02657 42.283C7.27067 42.2372 7.34695 42.0692 7.17913 41.8095C7.02657 41.5652 6.90453 41.3056 6.78248 41.046C6.69094 40.8474 6.81299 40.6947 6.96555 40.6184C7.13337 40.5267 7.19439 40.71 7.24016 40.8169C7.37746 41.1834 7.66733 41.5041 7.59105 41.9775ZM24.9372 1.33949C24.8151 2.56123 24.7084 3.63025 24.6016 4.684C24.5711 4.8978 24.6168 5.06579 24.8762 5.08106C25.166 5.09633 25.1508 4.88253 25.1355 4.684C25.0592 3.63025 25.0135 2.5765 24.9372 1.33949ZM6.34005 43.6727C6.47736 43.2909 6.75197 43.0618 7.05709 42.8786C7.62156 42.5273 8.21655 42.2372 8.84205 42.0081C9.65062 41.7179 10.4744 41.4583 11.283 41.1987C9.62011 41.4888 8.06399 42.0692 6.62992 42.9397C6.35531 43.0924 6.17223 43.3214 6.34005 43.6727ZM15.7988 39.0606C16.0124 39.0148 16.2565 38.9537 16.2565 38.6636C16.2565 38.4192 16.0887 38.2818 15.8598 38.2818C15.6005 38.2818 15.4022 38.3734 15.4022 38.6636C15.3869 38.9079 15.5547 39.0301 15.7988 39.0606ZM33.6942 39.1217C33.6942 38.9385 33.6026 38.801 33.4043 38.801C33.2212 38.801 33.0687 38.8621 33.0534 39.0759C33.0382 39.305 33.1755 39.4272 33.3891 39.4424C33.5874 39.4577 33.6789 39.3203 33.6942 39.1217ZM5.88237 32.7076C5.88237 32.6923 5.88237 32.6771 5.88237 32.6618C5.16533 32.6618 4.46355 32.6618 3.74652 32.6618C3.74652 32.6771 3.74652 32.6923 3.74652 32.7076C4.4483 32.7076 5.16533 32.7076 5.88237 32.7076Z" fill="#B35229"/>
<path d="M37.5079 8.53711C39.0335 9.46868 40.3303 10.6599 41.5355 11.9732C42.3288 12.8437 43.0611 13.7753 43.7629 14.7222C44.1596 15.2567 45.2733 17.1504 45.4869 17.9292C45.1817 17.7001 45.1207 17.3947 44.9834 17.1504C43.1527 13.8059 40.7117 10.9806 37.5995 8.78146C37.5384 8.73564 37.4927 8.67455 37.4316 8.62874C37.4469 8.58292 37.4774 8.55238 37.5079 8.53711Z" fill="#B35229"/>
<path d="M4.1121 18.2033C3.92912 17.4249 4.1121 17.0586 4.82874 16.7991C4.60002 17.2722 4.37131 17.6843 4.1121 18.2033Z" fill="#B35229"/>
<path d="M26.3704 41.3254C27.057 41.5698 27.5147 42.0737 27.8198 42.7304C27.8503 42.7915 27.9113 42.8679 27.9723 42.8831C28.5521 42.9595 28.7809 43.4787 29.1318 43.83C29.086 43.8758 29.0555 43.9216 29.0098 43.9674C27.9723 43.7384 27.4994 42.8526 26.9044 42.1196C26.7213 41.8752 26.2484 41.7836 26.3704 41.3254Z" fill="#B35229"/>
<path d="M27.9268 55.6198C27.9268 55.3449 28.0793 55.1005 28.003 54.8256C27.9725 54.734 28.003 54.6271 28.1251 54.6118C28.2471 54.5966 28.3082 54.7035 28.3082 54.7798C28.2471 55.7419 28.8421 56.6277 28.5828 57.6204C28.5065 57.9105 28.6591 58.2465 28.6896 58.5672C28.7048 58.6894 28.7658 58.8727 28.598 58.9032C28.3997 58.949 28.415 58.7505 28.3997 58.6283C28.2319 57.6509 28.0793 56.6277 27.9268 55.6198Z" fill="#B35229"/>
<path d="M24.3413 45.1273C23.9296 45.0968 23.6247 44.9289 23.5789 44.5015C23.5332 44.1199 23.9144 43.7689 24.3413 43.7383C24.7073 43.7231 25.0885 44.0283 25.058 44.3947C25.0275 44.8068 24.7835 45.0663 24.3413 45.1273ZM24.2651 44.7305C24.4481 44.7457 24.5548 44.6236 24.5853 44.471C24.6158 44.3031 24.5243 44.1657 24.3566 44.1505C24.1736 44.1352 24.0211 44.2268 24.0059 44.4405C23.9906 44.6084 24.0974 44.6999 24.2651 44.7305Z" fill="#B35229"/>
<path d="M23.1674 42.9136C22.6945 43.891 22.0385 44.5018 21.2452 44.96C21.1231 45.0363 21.0011 45.2043 20.8485 45.0363C20.7112 44.8684 20.818 44.7156 20.9553 44.5935C21.2604 44.3491 21.4588 43.9826 21.9317 43.9826C22.1148 43.9826 22.1758 43.7841 22.2521 43.6161C22.4352 43.2954 22.7098 43.0816 23.1674 42.9136Z" fill="#B35229"/>
<path d="M14.6085 39.7369C14.5628 39.9354 14.6848 40.1492 14.4712 40.1797C14.2882 40.2103 14.1356 40.0728 14.0898 39.9049C13.9678 39.3856 13.861 38.8664 13.7695 38.3472C13.7389 38.2097 13.7847 38.0723 13.9678 38.0723C14.1661 38.0723 14.3034 38.1639 14.3339 38.3624C14.4407 38.8358 14.5323 39.3245 14.6085 39.7369Z" fill="#B35229"/>
<path d="M25.166 43.54C25.8827 44.1506 26.5536 44.6848 27.1482 45.4327C26.3096 45.2953 25.2423 44.288 25.166 43.54Z" fill="#B35229"/>
<path d="M19.3833 43.7375C19.7492 43.0201 20.4659 42.6538 20.9081 42.0127C20.9386 42.8675 20.2982 43.2643 19.8255 43.7527C19.7035 43.8748 19.5358 43.768 19.3833 43.7375Z" fill="#B35229"/>
<path d="M28.1557 53.9237C28.1862 54.0762 28.1709 54.2134 28.0184 54.1829C27.7439 54.1219 27.7134 53.8779 27.6829 53.6492C27.6677 53.4662 27.6829 53.2375 27.9117 53.2833C28.2776 53.3443 27.9879 53.7559 28.1557 53.9237Z" fill="#B35229"/>
<path d="M21.8554 41.6149C21.8401 41.8589 21.7182 42.0114 21.5352 42.0419C21.3675 42.0724 21.2607 41.9046 21.2607 41.7522C21.2607 41.5387 21.4132 41.3557 21.6267 41.3252C21.8554 41.2795 21.6877 41.5844 21.8554 41.6149Z" fill="#B35229"/>
<path d="M28.7808 57.6968C28.857 57.712 28.8723 57.712 28.8875 57.7273C29.1163 58.0326 29.2077 58.3836 29.1772 58.7652C29.1772 58.7805 29.0858 58.811 29.04 58.811C28.857 58.7652 28.7198 58.2005 28.7808 57.6968Z" fill="#B35229"/>
<path d="M12.0912 38.1477C11.8472 38.0867 11.832 37.8732 11.8167 37.6903C11.7862 37.5225 11.9082 37.4463 12.0607 37.4463C12.3199 37.4463 12.3809 37.6293 12.3809 37.8275C12.3656 38.0105 12.2284 38.0867 12.0912 38.1477Z" fill="#B35229"/>
<path d="M30.0778 31.063C30.4285 31.0935 30.5657 31.3377 30.5504 31.643C30.5504 31.9483 30.337 32.1315 30.032 32.1315C29.7423 32.1315 29.5898 31.933 29.5898 31.6583C29.5898 31.353 29.7118 31.0935 30.0778 31.063Z" fill="#B35229"/>
<path d="M19.2308 31.3221C19.2003 31.5815 19.0935 31.8257 18.7886 31.8257C18.4531 31.841 18.3159 31.6121 18.3159 31.3068C18.3159 31.032 18.4684 30.8184 18.7733 30.8184C19.063 30.8336 19.2003 31.0473 19.2308 31.3221Z" fill="#B35229"/>
<path d="M47.1953 31.4899C47.2411 31.2304 47.2868 30.9557 47.607 30.9862C47.8967 31.0167 47.912 31.2915 47.8967 31.5204C47.8815 31.7494 47.8662 32.0241 47.5765 32.0241C47.2716 32.0241 47.2106 31.7341 47.1953 31.4899Z" fill="#B35229"/>
<path d="M2.08301 30.8939C2.1135 30.6957 2.12875 30.4517 2.40321 30.467C2.63193 30.4822 2.69292 30.6805 2.67767 30.8787C2.66242 31.0769 2.60143 31.2751 2.37272 31.2751C2.1135 31.3056 2.1135 31.0921 2.08301 30.8939Z" fill="#B35229"/>
<path d="M25.2568 27.4735C25.2415 27.8398 25.1348 28.1451 24.7688 28.1451C24.4486 28.1451 24.3267 27.8703 24.3267 27.5956C24.3267 27.2598 24.4791 26.9851 24.8298 26.9698C25.1653 26.9545 25.2263 27.2598 25.2568 27.4735Z" fill="#B35229"/>
<path d="M25.4398 9.85003C25.4245 10.1553 25.2416 10.3385 24.9366 10.3537C24.6316 10.369 24.4792 10.1553 24.4792 9.88055C24.4639 9.60581 24.6012 9.39212 24.9061 9.37686C25.2263 9.3616 25.394 9.54476 25.4398 9.85003Z" fill="#B35229"/>
<path d="M24.7841 17.3335C25.0891 17.3793 25.272 17.5472 25.2568 17.8525C25.2415 18.1425 25.1043 18.3256 24.8146 18.3256C24.4944 18.3409 24.3114 18.1425 24.3114 17.8372C24.2962 17.5472 24.4792 17.3793 24.7841 17.3335Z" fill="#B35229"/>
<path d="M24.9212 5.68115C25.1957 5.71168 25.3634 5.86431 25.3634 6.15432C25.3634 6.42906 25.2414 6.64275 24.9364 6.65801C24.6467 6.65801 24.479 6.47485 24.479 6.18485C24.479 5.9101 24.6315 5.72694 24.9212 5.68115Z" fill="#B35229"/>
<path d="M4.63038 42.5464C4.63038 43.0043 4.18819 43.4012 3.71551 43.3859C3.28858 43.3706 2.96837 43.0501 2.95312 42.6075C2.95312 42.1648 3.34957 41.7222 3.76126 41.7222C4.21869 41.7222 4.64563 42.119 4.63038 42.5464ZM3.807 43.0196C4.06621 42.989 4.24919 42.8822 4.26443 42.6075C4.27968 42.2717 4.03572 42.119 3.76126 42.1038C3.47155 42.0885 3.31907 42.3327 3.31907 42.5922C3.30382 42.8975 3.54779 42.9738 3.807 43.0196Z" fill="#B35229"/>
<path d="M8.36834 48.167C8.04814 48.7928 7.45347 49.1286 6.90456 49.4949C6.73683 49.617 6.64534 49.3881 6.5996 49.2507C6.53861 49.0217 6.75208 48.8081 6.87406 48.8386C7.51447 49.0217 7.78893 48.4723 8.20062 48.2128C8.26161 48.1975 8.3226 48.1823 8.36834 48.167Z" fill="#B35229"/>
<path d="M9.55798 49.6179C9.7562 49.6026 9.84769 49.7398 9.83244 49.8923C9.81719 50.1363 9.61897 50.304 9.4055 50.365C9.23777 50.4107 9.03955 50.1363 9.03955 50.1058C9.13104 49.8618 9.29876 49.6941 9.55798 49.6179Z" fill="#B35229"/>
<path d="M45.5017 43.6305C45.0595 43.6305 44.6783 43.249 44.6631 42.8063C44.6478 42.3637 44.9985 41.9973 45.4255 41.9821C45.8981 41.9668 46.3861 42.3942 46.3861 42.8368C46.3861 43.2184 45.9286 43.6305 45.5017 43.6305ZM45.9286 42.8063C45.9134 42.5468 45.7762 42.3789 45.5017 42.3942C45.2272 42.4095 45.0748 42.5621 45.0748 42.8216C45.0748 43.1268 45.2577 43.2795 45.5474 43.2642C45.8219 43.249 45.9134 43.0658 45.9286 42.8063Z" fill="#B35229"/>
<path d="M35.2649 40.3938C35.0819 40.012 35.2039 39.7065 35.2039 39.4011C35.2039 38.943 35.3107 38.5001 35.2039 38.0419C35.1734 37.9045 35.1429 37.6907 35.3412 37.6601C35.5243 37.6143 35.6158 37.8281 35.6311 37.9503C35.6769 38.7597 35.7836 39.5844 35.2649 40.3938Z" fill="#B35229"/>
<path d="M35.0665 51.5269C35.5089 51.985 35.7225 52.489 35.9666 52.9777C36.3785 53.7871 36.7447 54.627 37.1566 55.4517C37.3091 55.7571 37.2634 56.0167 36.9887 56.1236C36.6836 56.2611 36.6531 55.9098 36.5463 55.7418C36.3785 55.4822 36.2412 55.2073 36.1344 54.9324C36.0581 54.7644 35.814 54.5812 36.1802 54.3674C36.3632 54.2757 36.1039 54.0467 36.0429 53.8787C35.9666 53.6496 35.9208 53.8481 35.8445 53.9092C35.6767 54.0314 35.6004 53.8634 35.5547 53.7565C35.3106 53.2831 35.097 52.7944 34.8681 52.3057C34.7156 52.0003 34.9902 51.8323 35.0665 51.5269Z" fill="#B35229"/>
<path d="M32.7782 52.3362C33.2662 52.7025 33.5559 53.542 33.3729 53.9694C33.2814 54.1678 33.1594 54.3052 33.0374 54.0457C32.8545 53.6794 32.7325 53.2825 32.58 52.9009C32.4885 52.6567 32.7477 52.5346 32.7782 52.3362Z" fill="#B35229"/>
<path d="M15.6159 52.7793C15.9515 53.2069 15.7837 53.5887 15.5396 53.9705C15.4023 54.1843 15.265 54.3828 15.1735 54.6119C15.0209 54.9937 14.7768 55.2228 14.3496 55.238C14.3344 55.2075 14.2886 55.1464 14.3039 55.1464C14.9751 54.505 14.9599 53.4665 15.6159 52.7793Z" fill="#B35229"/>
<path d="M14.6237 55.6504C14.3797 56.1388 14.1662 56.5662 13.9223 57.0546C13.5411 56.0777 13.785 55.5893 14.6237 55.6504Z" fill="#B35229"/>
<path d="M40.5735 51.2355C40.4973 51.3729 40.3906 51.4339 40.2533 51.3118C39.7501 50.8234 39.1707 50.4113 38.7743 49.816C38.7133 49.7092 38.5456 49.6023 38.6981 49.4802C38.8353 49.3734 38.9268 49.5413 39.0183 49.6328C39.4452 50.0602 39.8721 50.5028 40.2838 50.9302C40.3906 51.0218 40.482 51.1287 40.5735 51.2355Z" fill="#B35229"/>
<path d="M42.5878 49.8008C42.542 49.9534 42.5573 50.106 42.4353 50.1671C42.3133 50.2281 42.2219 50.1213 42.1456 50.0602C42.0999 50.0297 42.0541 49.9839 42.0236 49.9381C41.8559 49.7397 41.6424 49.5565 41.7949 49.2513C41.8407 49.1597 41.9017 49.0529 41.9931 49.1139C42.2371 49.2971 42.4963 49.4802 42.5878 49.8008Z" fill="#B35229"/>
<path d="M40.5744 51.2357C40.483 51.129 40.3915 51.0223 40.2847 50.9308C40.3 50.7631 40.0408 50.6716 40.1932 50.4429C40.5287 50.5496 40.6812 50.8393 40.8032 51.1138C40.9099 51.2967 40.7117 51.2815 40.5744 51.2357Z" fill="#B35229"/>
<path d="M28.3086 39.7373C28.6748 39.6915 28.8121 39.9969 28.9341 40.226C29.3308 40.959 30.063 41.463 30.2766 42.3029C30.2919 42.3793 30.3224 42.4404 30.2004 42.5625C29.8342 42.2571 29.5749 41.8448 29.2697 41.4782C29.0714 41.2339 28.9036 40.9285 28.6748 40.7147C28.3696 40.4398 28.2171 40.1343 28.3086 39.7373Z" fill="#B35229"/>
<path d="M32.3199 41.4466C31.9387 41.4161 31.6948 41.233 31.5423 40.8819C31.344 40.4393 31.0238 40.0577 30.9019 39.4624C31.771 39.9356 31.954 40.7598 32.3199 41.4466Z" fill="#B35229"/>
<path d="M30.9476 39.1252C30.7646 39.049 30.5359 39.0185 30.4597 38.7745C30.4139 38.5915 30.5511 38.5153 30.6884 38.5153C30.9781 38.5 30.9933 38.7593 31.0848 38.927C31.1305 39.0337 31.0696 39.11 30.9476 39.1252Z" fill="#B35229"/>
</svg>
